<?xml version="1.0" standalone="no"?>
<!DOCTYPE svg PUBLIC "-//W3C//DTD SVG 1.1//EN" "http://www.w3.org/Graphics/SVG/1.1/DTD/svg11.dtd" >
<svg xmlns="http://www.w3.org/2000/svg" xmlns:xlink="http://www.w3.org/1999/xlink" version="1.1">
<metadata></metadata>
<defs>
<font id="legacysanitcmedregular" horiz-adv-x="544" >
<font-face units-per-em="1000" ascent="800" descent="-200" />
<missing-glyph horiz-adv-x="241" />
<glyph horiz-adv-x="0" />
<glyph unicode="&#xd;" horiz-adv-x="241" />
<glyph unicode=" "  horiz-adv-x="241" />
<glyph unicode="&#x09;" horiz-adv-x="241" />
<glyph unicode="&#xa0;" horiz-adv-x="241" />
<glyph unicode="!" horiz-adv-x="359" d="M180 114q26 0 44 -19t18 -45t-18.5 -44t-44.5 -18t-44.5 18t-18.5 44q0 27 18.5 45.5t45.5 18.5zM235 644v-120l-37 -361h-38l-37 361v120h112z" />
<glyph unicode="&#x22;" horiz-adv-x="545" d="M308 564v70h84v-70l-18 -221h-48zM152 564v70h84v-70l-18 -221h-48z" />
<glyph unicode="#" horiz-adv-x="582" d="M207 258h134l34 132h-134zM391 451l46 181h49l-46 -181h136l-16 -61h-136l-34 -132h136l-15 -62h-137l-50 -196h-48l50 196h-135l-50 -196h-49l50 196h-136l16 62h136l34 132h-136l15 61h136l47 181h48l-46 -181h135z" />
<glyph unicode="$" d="M301 69q41 6 63.5 29.5t22.5 60.5q0 36 -19.5 59t-66.5 45v-194zM252 561q-40 -3 -61.5 -24.5t-21.5 -57.5q0 -65 83 -100v182zM302 695v-73q25 0 58 -4t64 -11q12 -3 14.5 -5t3.5 -10l2 -61q0 -8 -5 -9l-11 -4q-1 -1 -6 -1q-2 0 -4.5 1t-7.5 6q-53 34 -108 36v-200 q97 -39 138.5 -81t41.5 -103q0 -69 -47.5 -113.5t-132.5 -55.5v-104h-51v102q-41 0 -82.5 5.5t-74.5 14.5q-13 4 -16 6t-4 9l-3 61q0 6 0.5 8t5.5 4l12 4l7 1q2 0 5 -1.5t11 -6.5q35 -21 71 -32.5t68 -10.5v216q-50 21 -83.5 40t-53.5 39t-28.5 43.5t-8.5 53.5 q0 67 45.5 109.5t128.5 53.5v73h51z" />
<glyph unicode="%" horiz-adv-x="718" d="M546 278q-34 0 -54.5 -33t-20.5 -90q0 -55 19 -86t54 -31t55.5 32.5t20.5 90.5q0 54 -20 85.5t-54 31.5zM550 328q69 0 109 -45t40 -120q0 -81 -42 -128t-115 -47q-69 0 -109.5 45t-40.5 122q0 81 42.5 127t115.5 46zM606 634l-436 -645h-63l435 645h64zM173 596 q-34 0 -54.5 -33t-20.5 -90q0 -55 19 -86t54 -31t55.5 32.5t20.5 89.5q0 55 -20 86.5t-54 31.5zM177 646q69 0 109 -45t40 -120q0 -81 -42 -128t-115 -47q-69 0 -109.5 45t-40.5 122q0 80 42.5 126.5t115.5 46.5z" />
<glyph unicode="&#x26;" horiz-adv-x="637" d="M228 305q-91 -42 -91 -121q0 -51 34 -82t90 -31q41 0 74.5 15t68.5 48q-21 30 -38 52.5t-36.5 41.5t-43.5 37t-58 40zM272 378q80 30 80 103q0 36 -20 57.5t-54 21.5q-35 0 -55.5 -21.5t-20.5 -57.5q0 -32 16.5 -56t53.5 -47zM614 357q-19 -57 -48 -110.5t-64 -95.5 q21 -31 38.5 -51t34.5 -32.5t35 -18.5t41 -7l-5 -42q-12 -2 -21.5 -2.5t-23.5 -0.5q-29 0 -49 3t-37.5 12t-34.5 26t-39 44q-50 -48 -99.5 -70.5t-105.5 -22.5q-44 0 -80.5 13t-62.5 36.5t-41 56t-15 70.5q0 57 34.5 99.5t107.5 75.5q-35 27 -51 57t-16 68q0 33 13 60.5 t36 47.5t55 31t70 11q69 0 110.5 -35t41.5 -93q0 -97 -119 -140q42 -29 77 -62.5t68 -79.5q19 27 36 67t29 85h85z" />
<glyph unicode="'" horiz-adv-x="359" d="M138 564v70h84v-70l-18 -221h-48z" />
<glyph unicode="(" horiz-adv-x="378" d="M306 645q-80 -101 -117.5 -207t-37.5 -230q0 -236 155 -428l-42 -38q-99 94 -150.5 213.5t-51.5 256.5q0 136 52 257.5t150 214.5z" />
<glyph unicode=")" horiz-adv-x="378" d="M72 -220q80 101 117.5 207t37.5 230q0 120 -38 225t-117 204l42 38q99 -94 150.5 -213.5t51.5 -256.5q0 -136 -51.5 -257t-150.5 -215z" />
<glyph unicode="*" horiz-adv-x="545" d="M130 502l111 -16l-68 89l-20 34l55 33l20 -33l44 -104l43 104l20 33l55 -33l-20 -34l-68 -89l111 16h39v-63h-39l-111 16l68 -89l20 -34l-55 -33l-20 34l-43 103l-44 -103l-20 -34l-55 33l20 34l68 89l-111 -16h-39v63h39z" />
<glyph unicode="+" horiz-adv-x="545" d="M240 513q0 11 2.5 13.5t13.5 2.5h32q12 0 14 -2t2 -16v-162h164q11 0 13.5 -2.5t2.5 -13.5v-32q0 -11 -2.5 -13.5t-15.5 -2.5h-162v-164q0 -11 -2.5 -13.5t-13.5 -2.5h-32q-10 0 -13 3t-3 13v164h-164q-11 0 -13.5 2.5t-2.5 13.5v32q0 11 2.5 13.5t13.5 2.5h164v164z" />
<glyph unicode="," horiz-adv-x="278" d="M52 -138q92 64 92 119q0 18 -24 27q-23 8 -32 19t-9 30q0 23 16 38t41 15q35 0 59 -28t24 -70q0 -84 -92 -161q-15 -12 -27 -20.5t-16 -8.5q-2 0 -2.5 0.5t-3.5 4.5l-26 29v6z" />
<glyph unicode="-" horiz-adv-x="322" d="M283 278l-16 -79h-228l17 79h227z" />
<glyph unicode="." horiz-adv-x="278" d="M139 114q26 0 44 -19t18 -45t-18.5 -44t-44.5 -18t-44.5 18t-18.5 44q0 27 18.5 45.5t45.5 18.5z" />
<glyph unicode="/" horiz-adv-x="422" d="M365 637l-302 -816h-60l302 816h60z" />
<glyph unicode="0" d="M273 587q-56 0 -87 -63q-17 -33 -24 -84.5t-7 -133.5q0 -42 2 -74t6 -57t10.5 -44.5t15.5 -34.5q30 -49 82 -49q62 0 90.5 65t28.5 209q0 140 -28 203t-89 63zM280 646q103 0 158 -82.5t55 -239.5q0 -165 -57 -250.5t-168 -85.5q-106 0 -161 82t-55 240q0 166 58 251 t170 85z" />
<glyph unicode="1" d="M348 639v-639h-96v535l-137 -65h-18v61l211 108h40z" />
<glyph unicode="2" d="M462 0h-402v48q30 30 61.5 62t60.5 62.5t53.5 58.5t41.5 49q44 55 63 96.5t19 85.5q0 55 -26 85t-75 30q-54 0 -92.5 -28t-49.5 -75q-2 -9 -3.5 -10.5t-6.5 -1.5h-8q-5 0 -6.5 1.5t-3.5 8.5l-10 40q-2 6 -2 8v4q0 8 9 22.5t23 29.5q68 71 175 71q83 0 129.5 -44.5 t46.5 -123.5q0 -50 -19.5 -94.5t-62.5 -94.5q-18 -21 -33.5 -37.5t-37 -38t-54 -51.5t-84.5 -77h317z" />
<glyph unicode="3" d="M154 341q32 14 52 23t33 16t22 12.5t19 13.5q46 34 46 92q0 41 -22.5 64t-61.5 23q-45 0 -79.5 -22t-48.5 -59q-2 -3 -3 -4t-6 -1h-8q-6 0 -7 1t-3 7l-12 41l-1 9q0 10 31 35q35 29 72.5 42t85.5 13q76 0 119 -34.5t43 -96.5q0 -45 -24.5 -77.5t-83.5 -66.5 q27 -3 45.5 -9t36.5 -17q33 -22 51.5 -58.5t18.5 -79.5q0 -50 -23.5 -96.5t-62.5 -75.5q-30 -23 -72 -35.5t-90 -12.5q-111 0 -165 68q-8 10 -11 16.5t-3 17.5q0 10 1.5 13.5t6.5 5.5l30 17q10 5 16 5h12q7 0 9 -7q35 -79 117 -79q29 0 53.5 11t42 30.5t27.5 47t10 59.5 q0 56 -31 89.5t-83 33.5q-19 0 -36 -4t-50 -15z" />
<glyph unicode="4" d="M333 524l-230 -292h230v292zM518 160h-94v-160h-91v160h-307v67l328 407h70v-402h94v-72z" />
<glyph unicode="5" d="M479 634l-17 -86h-239l-35 -120q76 -12 122 -27.5t79 -41.5q81 -63 81 -160q0 -45 -17.5 -83.5t-48.5 -67t-73 -44.5t-90 -16q-54 0 -95.5 16.5t-66.5 48.5q-10 12 -12.5 19.5t-2.5 21.5q0 12 1 15t7 7l28 20q10 6 17 6h13q5 0 6.5 -1.5t3.5 -8.5q12 -39 45.5 -62 t79.5 -23q50 0 82.5 36t32.5 92q0 43 -21.5 76.5t-60.5 52.5q-16 7 -31 13t-34.5 10.5t-45.5 9t-64 9.5l-15 22l78 266h293z" />
<glyph unicode="6" d="M161 253q0 -100 31.5 -153t90.5 -53q51 0 80.5 39t29.5 106q0 68 -29.5 104.5t-83.5 36.5q-31 0 -58 -11.5t-60 -37.5zM470 590h-11q-51 0 -101 -17.5t-88 -48.5q-40 -32 -63 -71.5t-35 -96.5q42 26 75 37t71 11q40 0 73 -13.5t56.5 -38.5t36 -61t12.5 -80q0 -50 -16 -91 t-45 -70.5t-70 -45.5t-90 -16t-89 18t-68 52t-43.5 81.5t-15.5 106.5q0 60 16 116t45 104t70 86t91 61q39 18 76.5 26t85.5 8q11 0 16 -8l19 -34z" />
<glyph unicode="7" d="M495 634v-50l-321 -607l-87 22v7l312 538h-336v90h432z" />
<glyph unicode="8" d="M241 298q-52 -26 -74 -56t-22 -77q0 -57 32 -87.5t93 -30.5q60 0 94.5 29t34.5 80q0 22 -6 38.5t-23 32t-48 32t-81 39.5zM289 370q47 25 67.5 53.5t20.5 70.5q0 46 -26 72t-73 26q-51 0 -79.5 -26t-28.5 -72q0 -54 49 -87q4 -3 9 -6t12.5 -6.5t19 -9.5t29.5 -15z M336 348q45 -21 68.5 -35.5t40.5 -29.5q48 -46 48 -115q0 -40 -17 -73t-47.5 -57t-73.5 -37t-95 -13q-97 0 -153 43.5t-56 118.5q0 57 34.5 98.5t108.5 73.5q-61 32 -87.5 68t-26.5 87q0 78 56.5 124t152.5 46q85 0 131.5 -37.5t46.5 -105.5q0 -51 -31 -88t-100 -68z" />
<glyph unicode="9" d="M386 359q1 11 1 16v13q0 97 -31.5 148.5t-89.5 51.5q-52 0 -81.5 -38t-29.5 -104q0 -64 29.5 -100.5t82.5 -36.5q63 0 119 50zM77 47q7 -1 12 -1h8q50 0 96.5 16.5t85.5 48.5q21 17 37 35.5t28 39.5t20.5 46.5t14.5 57.5q-39 -27 -74.5 -39.5t-73.5 -12.5q-39 0 -72 14 t-57 39t-37 59.5t-13 76.5q0 48 16.5 88.5t46.5 70t71 45.5t91 16q102 0 156.5 -66.5t54.5 -191.5q0 -119 -52.5 -212t-149.5 -145q-82 -44 -175 -44q-12 0 -15.5 1.5t-7.5 8.5l-21 36z" />
<glyph unicode=":" horiz-adv-x="278" d="M139 431q26 0 44 -19t18 -45t-18.5 -44t-44.5 -18t-44.5 18.5t-18.5 44.5t18.5 44.5t45.5 18.5zM139 114q26 0 44 -19t18 -45t-18.5 -44t-44.5 -18t-44.5 18t-18.5 44q0 27 18.5 45.5t45.5 18.5z" />
<glyph unicode=";" horiz-adv-x="278" d="M52 -138q45 32 68.5 62t23.5 56q0 19 -24 28q-23 8 -32 19t-9 30q0 23 16 38t41 15q35 0 59 -28t24 -70q0 -85 -93 -162q-14 -12 -26.5 -20t-15.5 -8q-2 0 -2.5 0.5t-3.5 4.5l-26 29v6zM141 431q26 0 44 -19t18 -45t-18.5 -44t-44.5 -18t-44.5 18t-18.5 44 q0 27 18.5 45.5t45.5 18.5z" />
<glyph unicode="&#x3c;" d="M478 476l-326 -155l326 -155v-81l-412 199v75l412 199v-82z" />
<glyph unicode="=" horiz-adv-x="545" d="M468 287q11 0 13.5 -2.5t2.5 -13.5v-29q0 -11 -3 -13.5t-15 -2.5h-390q-11 0 -13.5 2.5t-2.5 13.5v28q0 11 3 14t13 3h392zM468 406q11 0 13.5 -2.5t2.5 -13.5v-29q0 -11 -2.5 -13.5t-15.5 -2.5h-390q-11 0 -13.5 2.5t-2.5 13.5v29q0 11 2.5 13.5t13.5 2.5h392z" />
<glyph unicode="&#x3e;" d="M66 167l326 154l-326 155v82l412 -199v-76l-412 -198v82z" />
<glyph unicode="?" horiz-adv-x="430" d="M149 112q25 0 43 -18.5t18 -44.5q0 -25 -18 -43t-44 -18t-44 18t-18 43q0 27 18 45t45 18zM66 591q-3 9 -3 13q0 14 10 20q18 10 44.5 16t52.5 6q42 0 79.5 -16.5t66 -44.5t45.5 -65t17 -77q0 -28 -10 -53t-27 -43q-14 -14 -32 -26t-59 -33q-28 -15 -43 -24.5t-22 -21.5 t-8.5 -31.5t-2.5 -53.5h-54l-1 24q-2 26 -3 47.5t-1 34.5q0 18 2.5 29.5t12.5 23t29 24t51 31.5q28 16 46 28.5t27.5 23t13 21.5t3.5 25q0 42 -30 68.5t-77 26.5q-43 0 -86 -24h-23z" />
<glyph unicode="@" horiz-adv-x="793" d="M468 394q2 18 2.5 21.5t0.5 8.5q0 15 -21 15q-28 0 -55 -16t-48.5 -42t-35 -59t-13.5 -66q0 -43 25 -43q23 0 58 32t79 92zM518 243q-3 -20 -3.5 -26.5t-0.5 -12.5q0 -18 18 -18q26 0 51 17t44.5 45.5t31 65.5t11.5 76q0 46 -16 83.5t-45.5 64.5t-71 41.5t-92.5 14.5 q-66 0 -123.5 -25t-100.5 -68t-67.5 -101.5t-24.5 -124.5q0 -56 19 -100.5t54 -76t85 -48.5t113 -17q42 0 84.5 8t74.5 22q6 2 7 2q4 0 8.5 -10t4.5 -18q0 -6 -5 -9t-32 -13q-36 -14 -75 -20t-86 -6q-77 0 -139 20t-106 57t-67.5 90t-23.5 118q0 78 31.5 145.5t86.5 117.5 t129 79t158 29q65 0 119.5 -18.5t94 -51.5t61.5 -78.5t22 -100.5q0 -79 -43 -142t-118 -93q-49 -19 -89 -19q-56 0 -56 45q0 14 3 33.5t9 49.5q-91 -128 -159 -128q-35 0 -55 27.5t-20 74.5q0 54 29.5 106t82.5 90q34 24 69 37.5t83 20.5l1 7q1 6 10 6h57q6 0 6 -5l-1 -6z " />
<glyph unicode="A" horiz-adv-x="633" d="M320 533l-113 -274h215zM379 634l252 -634h-113l-73 199h-264l-81 -199h-97l298 634h78z" />
<glyph unicode="B" horiz-adv-x="607" d="M285 61q85 0 128 31.5t43 94.5q0 36 -15.5 63t-44.5 41q-39 20 -134 20h-71v-249zM262 370q48 0 71.5 5.5t41.5 19.5q33 28 33 81q0 56 -30.5 79.5t-101.5 23.5h-11q-4 0 -12 -0.5t-22.5 -1t-39.5 -1.5v-206h71zM91 634q27 0 44.5 0.5t29.5 1t21 0.5h22q31 1 53.5 1.5 t33.5 0.5q64 0 102 -8t64 -28q56 -40 56 -108q0 -48 -25 -80t-79 -54q33 -6 52 -13t37 -21q30 -23 47 -57.5t17 -74.5q0 -52 -26.5 -94.5t-72.5 -66.5q-34 -17 -81 -25t-115 -8h-180v634z" />
<glyph unicode="C" horiz-adv-x="644" d="M616 554q-1 -5 -1.5 -7t-4.5 -4l-8 -3q-2 -2 -6 -2q-2 0 -4 1t-13 6q-36 17 -84 27.5t-94 10.5q-45 0 -85.5 -13t-71.5 -38q-87 -69 -87 -210q0 -60 18 -110.5t51 -86.5t78.5 -56t100.5 -20q103 0 185 47q2 1 4 1t6 -2l7 -5q4 -3 4 -6v-6l-9 -50q-1 -8 -3.5 -10.5 t-12.5 -4.5q-38 -11 -90 -18t-102 -7q-66 0 -117 13t-93 41q-66 42 -102.5 112t-36.5 151q0 86 39.5 158.5t111.5 119.5q49 32 108 47.5t134 15.5q24 0 51 -2t51.5 -5.5t44.5 -8t30 -9.5q8 -4 8 -12v-4z" />
<glyph unicode="D" horiz-adv-x="737" d="M306 62q74 0 123.5 14.5t80.5 45.5q34 33 52 86t18 118q0 76 -24 131.5t-72 86.5q-31 20 -67.5 28t-97.5 8q-18 0 -49 -1t-76 -3v-514h112zM91 634q51 2 88.5 3.5t66 2t50.5 1t41 0.5q49 0 87 -3.5t69 -12t55.5 -21.5t46.5 -32q48 -41 72.5 -102t24.5 -136 q0 -91 -36.5 -162.5t-104.5 -114.5q-48 -31 -109.5 -44t-155.5 -13h-195v634z" />
<glyph unicode="E" horiz-adv-x="552" d="M520 634v-64h-326v-202h290v-65h-290v-235h333v-68h-436v634h429z" />
<glyph unicode="F" horiz-adv-x="504" d="M526 634v-67h-332v-207h280v-67h-280v-293h-103v634h435z" />
<glyph unicode="G" horiz-adv-x="711" d="M648 315v-297q-64 -14 -128 -22t-118 -8q-140 0 -224 54q-63 40 -98 109t-35 151q0 77 28.5 140.5t80 108.5t123.5 70t159 25q21 0 47.5 -2t52 -5.5t46.5 -7.5t30 -8q5 -3 7.5 -6t2.5 -9l3 -55v-5l-2 -2l-2 -2l-12 -8q-3 -2 -4 -2q-2 0 -5.5 1.5t-13.5 7.5 q-33 18 -79.5 29t-89.5 11q-60 0 -108 -18.5t-81.5 -53t-52 -84t-18.5 -110.5q0 -62 18.5 -111t53 -83.5t84 -53t111.5 -18.5q30 0 57 3.5t64 12.5v248h103z" />
<glyph unicode="H" horiz-adv-x="741" d="M546 368v266h103v-634h-103v300h-352v-300h-103v634h103v-266h352z" />
<glyph unicode="I" horiz-adv-x="285" d="M194 634v-634h-103v634h103z" />
<glyph unicode="J" horiz-adv-x="285" d="M194 634v-537q0 -42 -2 -71.5t-7.5 -51.5t-15.5 -40t-25 -37q-34 -42 -77.5 -64t-91.5 -22q-24 0 -46.5 6.5t-33.5 17.5q-2 3 -3 7t-1 15q0 9 1 12t5 8l30 30q6 5 11 5h7q5 0 7 -1t11 -6q20 -11 51 -11q55 0 70 53q4 16 5.5 43.5t1.5 84.5v559h103z" />
<glyph unicode="K" horiz-adv-x="607" d="M620 634l-308 -277l318 -357h-137l-293 339l298 295h122zM194 634v-634h-103v634h103z" />
<glyph unicode="L" horiz-adv-x="489" d="M194 634v-566h309v-68h-412v634h103z" />
<glyph unicode="M" horiz-adv-x="889" d="M208 634l236 -490l250 490h96l19 -634h-101l-11 500l-251 -490l-41 -6l-240 500l-8 -504h-84l38 634h97z" />
<glyph unicode="N" horiz-adv-x="737" d="M158 634l422 -480l-12 480h82l-1 -629l-53 -16l-445 504l12 -493h-82l2 634h75z" />
<glyph unicode="O" horiz-adv-x="785" d="M387 583q-50 0 -92.5 -19t-73 -52.5t-47.5 -80.5t-17 -103q0 -59 19 -109.5t52 -88t77.5 -58.5t96.5 -21q49 0 90.5 19t72 53t47.5 81t17 102q0 65 -23 122.5t-65 96.5q-61 58 -154 58zM408 649q73 0 134 -24t105 -67t69 -102.5t25 -130.5q0 -74 -26.5 -136.5t-74 -107.5 t-113 -70.5t-143.5 -25.5q-63 0 -118.5 18t-99.5 53q-57 45 -89 113.5t-32 142.5q0 73 27.5 134.5t76 106.5t115 70.5t144.5 25.5z" />
<glyph unicode="P" horiz-adv-x="559" d="M194 308q20 -2 33 -2.5t31 -0.5q93 0 134 32.5t41 105.5q0 43 -16 73.5t-48 44.5q-16 7 -39.5 10.5t-58.5 3.5q-14 0 -37 -0.5t-40 -1.5v-265zM91 634q96 2 142 3t54 1q66 0 107.5 -8t70.5 -28q37 -23 57.5 -63.5t20.5 -90.5q0 -54 -25.5 -98.5t-72.5 -71.5 q-34 -20 -76 -28t-110 -8h-16h-13t-15 0.5t-21 0.5v-243h-103v634z" />
<glyph unicode="Q" horiz-adv-x="785" d="M387 583q-50 0 -92.5 -19t-73 -52.5t-47.5 -80.5t-17 -103q0 -59 19 -109.5t52 -88t77.5 -58.5t96.5 -21q49 0 90.5 19t72 53t47.5 81t17 102q0 65 -23 122.5t-65 96.5q-61 58 -154 58zM721 -154q-15 -4 -27 -5.5t-30 -1.5q-74 0 -149.5 39t-147.5 114q-69 1 -128 26 t-102 68t-67.5 101t-24.5 126q0 71 27.5 132t76 105.5t114 70t141.5 25.5q74 0 136 -23.5t106.5 -66t69.5 -101.5t25 -130q0 -58 -17 -109.5t-49 -93t-77 -72t-102 -46.5q108 -108 220 -111z" />
<glyph unicode="R" horiz-adv-x="626" d="M194 329q21 -2 35 -2h31q91 0 132.5 30.5t41.5 99.5q0 80 -60 106q-17 7 -40.5 10t-58.5 3q-17 0 -36 -0.5t-45 -1.5v-245zM91 634q16 0 26 0.5t20 0.5q11 0 25.5 0.5t39.5 1.5q31 1 52 1h41q34 0 60.5 -2t47.5 -5.5t38 -9.5t31 -15q35 -22 53.5 -58.5t18.5 -81.5 q0 -122 -141 -174q15 -30 34.5 -61.5t39 -60.5t38.5 -52.5t34 -37.5q36 -34 88 -39l3 -4l-10 -33q-3 -12 -40 -12q-21 0 -45 5.5t-45 15.5q-22 10 -43 28t-44.5 48t-51 75t-61.5 108q-19 -2 -31 -3t-32 -1h-20t-23 1v-269h-103v634z" />
<glyph unicode="S" horiz-adv-x="507" d="M440 557l1 -6q0 -1 -4 -5l-17 -7q-4 -2 -5 -2q-2 0 -14 8q-11 8 -26.5 15t-33.5 12t-37 8t-35 3q-57 0 -90 -25.5t-33 -70.5q0 -40 31 -65q8 -6 16 -11t20 -11t29.5 -14t45.5 -20q30 -13 50.5 -23t35.5 -19t26.5 -17.5t22.5 -18.5q21 -21 33 -49.5t12 -59.5 q0 -42 -18 -77t-50.5 -60.5t-78 -39.5t-99.5 -14q-18 0 -42.5 2t-49 5.5t-45.5 8t-33 8.5q-14 5 -15 15l-8 61q-1 3 -1 7q0 2 4 6l15 8q5 2 6 2q2 0 3 -1t9 -6q15 -10 36 -19t44.5 -15.5t47 -10.5t43.5 -4q60 0 97 28t37 74q0 38 -25 63q-14 13 -36 25.5t-70 32.5 q-31 13 -53 23t-38 19t-28 17.5t-23 18.5q-23 20 -35 49t-12 61q0 41 17 74t48.5 56.5t75.5 36.5t98 13q16 0 36 -1.5t38.5 -4.5t34.5 -6.5t24 -6.5q9 -4 10 -14z" />
<glyph unicode="T" horiz-adv-x="570" d="M597 634v-67h-260v-567h-103v567h-260v67h623z" />
<glyph unicode="U" horiz-adv-x="700" d="M185 634v-340q0 -49 1 -80t4 -50.5t9 -31.5t16 -23q19 -21 55.5 -33t83.5 -12q57 0 100.5 20.5t62.5 55.5q6 11 10.5 25.5t7 34.5t3.5 47t1 65v322h82l-3 -321q0 -58 -4 -99.5t-13 -71.5t-23.5 -51.5t-36.5 -39.5q-77 -63 -214 -63q-151 0 -208 81q-12 17 -19 34 t-11 41.5t-5.5 59.5t-1.5 87v343h103z" />
<glyph unicode="V" horiz-adv-x="585" d="M110 634l190 -512l215 512h96l-296 -634h-67l-252 634h114z" />
<glyph unicode="W" horiz-adv-x="948" d="M105 634l172 -507l180 507h59l170 -508l185 508h94l-265 -634h-66l-159 472l-176 -472h-69l-233 634h108z" />
<glyph unicode="X" horiz-adv-x="567" d="M139 634l160 -242l167 242h107l-234 -297l239 -337h-122l-178 270l-187 -270h-109l256 325l-218 309h119z" />
<glyph unicode="Y" horiz-adv-x="500" d="M92 634l171 -290l175 290h107l-249 -355v-279h-103v275l-222 359h121z" />
<glyph unicode="Z" horiz-adv-x="563" d="M552 634v-42l-402 -524h403l-11 -68h-532v43l406 524h-373v67h509z" />
<glyph unicode="[" horiz-adv-x="378" d="M309 679v-50h-123v-832h123v-50h-210v932h210z" />
<glyph unicode="\" horiz-adv-x="422" d="M419 -179h-60l-302 816h60z" />
<glyph unicode="]" horiz-adv-x="378" d="M68 -253v50h123v832h-123v50h210v-932h-210z" />
<glyph unicode="^" horiz-adv-x="476" d="M15 334l161 303h123l161 -303h-99l-124 228l-123 -228h-99z" />
<glyph unicode="_" horiz-adv-x="476" d="M476 -97v-65h-476v65h476z" />
<glyph unicode="`" horiz-adv-x="500" d="M300 473l-38 -7l-162 136v18l75 24l6 -2z" />
<glyph unicode="a" horiz-adv-x="497" d="M314 198q-38 -6 -67.5 -11.5t-58.5 -13.5t-38 -18t-9 -35q0 -32 15.5 -46.5t50.5 -14.5q11 0 21.5 1t22.5 3t27 6t36 10v119zM75 370q2 11 6 14q15 11 35.5 20t44 15.5t49.5 10t51 3.5q100 0 131 -55q8 -15 12 -38t3 -58l-3 -170v-19v-11t0.5 -5.5l1.5 -4.5q4 -12 21 -12 q26 0 63 17l4 -3v-39q0 -8 -10 -14q-11 -6 -25 -12t-29 -10t-29 -6.5t-24 -2.5q-41 0 -54 38q-53 -20 -92.5 -29t-71.5 -9q-51 0 -80 31.5t-29 87.5q0 44 16.5 67t58.5 36q37 11 82 19.5t108 16.5q0 25 -0.5 39.5t-1 23t-1.5 12.5t-3 9q-14 35 -78 35q-44 0 -72.5 -12.5 t-52.5 -41.5l-28 7z" />
<glyph unicode="b" horiz-adv-x="555" d="M167 73q45 -15 100 -15q72 0 109 39.5t37 116.5q0 71 -33 109t-94 38q-59 0 -119 -26v-262zM167 691v-297q51 21 87.5 30t74.5 9q85 0 134.5 -52t49.5 -142q0 -57 -20.5 -103t-59 -78.5t-92.5 -50t-120 -17.5q-36 0 -74 5.5t-64 13.5q-7 2 -8.5 4t-1.5 7v671h94z" />
<glyph unicode="c" horiz-adv-x="437" d="M365 332q-26 18 -47 25t-50 7q-62 0 -95 -36.5t-33 -105.5q0 -74 36.5 -117.5t96.5 -43.5q68 0 132 40l8 -4v-37q0 -8 -10 -17q-16 -12 -37 -22t-44 -17.5t-46.5 -11.5t-43.5 -4q-42 0 -77 14.5t-60 41t-39 63t-14 81.5q0 52 20 97t55 78t82.5 51.5t103.5 18.5 q34 0 64.5 -9t47.5 -24q4 -3 4.5 -6t0.5 -14q0 -9 -1 -11.5t-5 -7.5l-31 -29h-18z" />
<glyph unicode="d" horiz-adv-x="555" d="M388 331q-24 14 -49.5 20.5t-57.5 6.5q-69 0 -105 -37t-36 -107t37 -111.5t99 -41.5q53 0 112 34v236zM482 691v-691h-94v42q-80 -51 -157 -51q-43 0 -78 14t-59.5 40t-38 62t-13.5 81q0 52 20 96.5t55 76.5t84 50.5t106 18.5q20 0 37.5 -2t43.5 -7v270h94z" />
<glyph unicode="e" horiz-adv-x="452" d="M315 271q-5 107 -79 107q-42 0 -67 -34.5t-27 -94.5zM143 196q4 -66 35.5 -101t88.5 -35q35 0 65.5 9t65.5 29h8l13 -38v-2v-2q0 -3 -3.5 -6t-13.5 -10q-38 -25 -82 -38.5t-86 -13.5q-90 0 -141 56.5t-51 156.5q0 52 15 95t42 73.5t65 47t84 16.5q84 0 127 -52t44 -155z " />
<glyph unicode="f" horiz-adv-x="304" d="M325 422v-61h-142v-361h-95v361h-66v43l66 17v22q0 34 3 60t10.5 47.5t20 39t30.5 34.5q33 32 76 50.5t86 18.5q19 0 38.5 -4.5t34.5 -11t24.5 -15t9.5 -17.5q0 -10 -4 -15l-30 -41h-18q-35 31 -87 31q-55 0 -80 -35q-11 -15 -15 -42t-4 -81v-40h142z" />
<glyph unicode="g" horiz-adv-x="496" d="M237 -46q-129 -49 -129 -103q0 -27 34 -44.5t89 -17.5q36 0 68 8t56 21t38.5 30.5t14.5 37.5q0 37 -51 49q-26 6 -57.5 11t-62.5 8zM255 144q78 22 78 105q0 59 -27 95t-71 36q-42 0 -66.5 -28.5t-24.5 -77.5q0 -58 28.5 -92t82.5 -38zM485 361h-98q20 -22 29 -45t9 -54 q0 -47 -23.5 -83t-68.5 -57q-11 -6 -19 -9.5t-17.5 -6.5t-23.5 -7t-37 -11q-9 -2 -20.5 -5.5t-25.5 -7.5q-15 -5 -15 -16q0 -7 5 -12t18.5 -9t38.5 -8t66 -9q34 -4 57 -7.5t39 -8t27 -9.5t21 -12q41 -29 41 -78q0 -36 -23.5 -67.5t-63.5 -55.5t-94 -37.5t-115 -13.5 q-82 0 -129.5 27.5t-47.5 75.5q0 20 9 37.5t28.5 33t51 30.5t76.5 31q-48 9 -68 25t-20 45q0 17 6.5 27.5t23.5 18.5q6 3 17 7.5t45 16.5q-31 6 -48 14t-34 22q-50 44 -50 116q0 38 14 70t39 55t59 36t75 13q21 0 39 -2.5t43 -10.5l164 1v-60z" />
<glyph unicode="h" horiz-adv-x="537" d="M167 691v-314q51 29 90.5 42.5t78.5 13.5q79 0 112 -56q5 -10 8.5 -20.5t5.5 -26t3 -36.5t1 -52v-242h-95v244q0 38 -2 54.5t-8 27.5q-18 30 -63 30q-26 0 -61 -12t-70 -32v-312h-94v691h94z" />
<glyph unicode="i" horiz-adv-x="241" d="M121 682q23 0 39 -16.5t16 -39.5t-16.5 -39t-39.5 -16t-39 16t-16 39q0 24 16 40t40 16zM168 422v-422h-95v422h95z" />
<glyph unicode="j" horiz-adv-x="241" d="M123 682q23 0 39 -16.5t16 -39.5t-16.5 -39t-39.5 -16t-39 16t-16 39t16.5 39.5t39.5 16.5zM170 422v-450q0 -36 -2 -61.5t-7 -45t-14 -35.5t-22 -33q-27 -32 -63.5 -50t-75.5 -18q-31 0 -50 9t-19 23q0 9 0.5 11.5t4.5 7.5l33 34h15q14 -7 24.5 -9.5t23.5 -2.5 q40 0 52 36l2 10t2 14t1 23v36v501h95z" />
<glyph unicode="k" horiz-adv-x="485" d="M490 422l-215 -175l224 -247h-128l-198 228l198 194h119zM167 691v-691h-94v691h94z" />
<glyph unicode="l" horiz-adv-x="241" d="M168 691v-691h-95v691h95z" />
<glyph unicode="m" horiz-adv-x="815" d="M167 422v-57q54 38 91.5 53t77.5 15q77 0 105 -67q52 36 90 51.5t79 15.5q42 0 74 -17.5t46 -47.5q4 -8 7 -17.5t4.5 -22t2 -29.5t0.5 -41v-258h-95v246q0 19 -0.5 32t-1.5 21.5t-2.5 14.5t-4.5 11q-16 31 -60 31q-51 0 -124 -48v-308h-95v241q0 22 -0.5 36t-1 23 t-2.5 15t-5 11q-7 14 -21.5 22t-32.5 8q-28 0 -58.5 -13.5t-71.5 -44.5v-298h-95v422h94z" />
<glyph unicode="n" horiz-adv-x="537" d="M167 422v-59q28 20 51.5 33.5t43.5 21.5t39.5 11.5t40.5 3.5q78 0 109 -57q5 -9 8 -18t4.5 -22t2 -31.5t0.5 -48.5v-256h-95v239q0 22 -0.5 36t-1.5 23.5t-3 15.5t-5 12q-16 30 -54 30q-62 0 -139 -58v-298h-95v422h94z" />
<glyph unicode="o" horiz-adv-x="555" d="M273 373q-58 0 -93.5 -39t-35.5 -103q0 -39 11 -72t29.5 -58t44 -39t55.5 -14q28 0 51.5 11t40 31t26 47.5t9.5 60.5q0 39 -10 71t-28.5 55t-44 36t-55.5 13zM291 433q49 0 90 -15.5t70 -44t45.5 -67.5t16.5 -87q0 -51 -18.5 -93.5t-51 -73t-77.5 -48t-98 -17.5 q-50 0 -91.5 16t-71.5 45t-46.5 69t-16.5 88q0 51 18 93t51 72t78.5 46.5t101.5 16.5z" />
<glyph unicode="p" horiz-adv-x="555" d="M167 88q29 -14 52 -19.5t52 -5.5q69 0 106.5 39.5t37.5 111.5q0 67 -35.5 107.5t-95.5 40.5q-59 0 -117 -33v-241zM167 -251q0 -8 -8 -8h-78q-8 0 -8 8v665q0 8 8 8h77q12 0 9 -7v-1v-28q49 26 85.5 36.5t77.5 10.5t75 -14t58 -39.5t37 -61.5t13 -80q0 -52 -20 -96.5 t-55 -77.5t-82 -52t-102 -19q-20 0 -39 2.5t-48 9.5v-256z" />
<glyph unicode="q" horiz-adv-x="555" d="M388 350q-44 15 -93 15q-73 0 -112 -40t-39 -116q0 -72 35 -110.5t101 -38.5q56 0 108 23v267zM388 26q-48 -20 -84.5 -28.5t-72.5 -8.5q-88 0 -138.5 51.5t-50.5 140.5q0 56 20.5 102.5t58 79.5t90.5 51.5t117 18.5q17 0 37.5 -1.5t41 -4.5t38 -6.5t28.5 -7.5 q6 -2 7.5 -3.5t1.5 -6.5v-654q0 -8 -8 -8h-78q-8 0 -8 8v277z" />
<glyph unicode="r" horiz-adv-x="351" d="M168 422l-2 -111q13 21 22.5 35t16 23.5t12.5 16t12 12.5q38 35 82 35q15 0 33 -5t26 -13q5 -4 5 -15q0 -6 -0.5 -9.5t-2.5 -8.5l-23 -52h-15q-10 8 -19.5 11t-23.5 3q-17 0 -30.5 -5t-27 -18t-29 -36t-36.5 -58v-227h-95v422h95z" />
<glyph unicode="s" horiz-adv-x="404" d="M321 339q-29 18 -53.5 26t-53.5 8q-35 0 -55.5 -14t-20.5 -37q0 -12 3.5 -20t14 -15.5t30 -15.5t50.5 -19q21 -7 36 -13t26.5 -11.5t20.5 -11t17 -12.5q36 -30 36 -79q0 -62 -51.5 -99t-137.5 -37q-15 0 -32.5 1.5t-35 4t-33.5 6t-26 7.5q-5 2 -5.5 3.5l-2.5 7.5l-10 63 l24 11q31 -22 63 -32t70 -10q40 0 62 15t22 42q0 12 -4 20.5t-13.5 16t-26.5 15t-44 16.5q-24 7 -39 12.5t-25.5 10t-18 8.5t-15.5 10q-45 31 -45 86q0 59 49 94t131 35q13 0 28 -1t29 -3t26 -4.5t18 -4.5t7 -11l8 -58z" />
<glyph unicode="t" horiz-adv-x="341" d="M343 422v-59h-168v-202q0 -35 3.5 -52.5t12.5 -30.5q8 -10 21 -16t29 -6q20 0 42 6t53 20l5 -2l6 -35q1 -2 1 -4q0 -3 -4 -6t-18 -10q-69 -37 -130 -37q-40 0 -67 18t-37 50q-5 17 -7 37.5t-2 56.5l1 212h-55v24l124 127h25l-3 -91h168z" />
<glyph unicode="u" horiz-adv-x="537" d="M464 0h-93v56q-45 -35 -85 -51t-82 -16q-43 0 -74 18t-46 53q-4 10 -7 21t-4.5 26.5t-2 38t-0.5 55.5v221h95v-220q0 -28 0.5 -45.5t1.5 -29t3.5 -18.5t5.5 -14q8 -14 23.5 -22t35.5 -8q28 0 63 14.5t71 40.5v302h95v-422z" />
<glyph unicode="v" horiz-adv-x="422" d="M104 422l117 -319l133 319h86l-203 -422h-68l-171 422h106z" />
<glyph unicode="w" horiz-adv-x="692" d="M106 422l105 -323l124 323h57l103 -321l127 321h84l-196 -422h-69l-95 283l-116 -283h-69l-156 422h101z" />
<glyph unicode="x" horiz-adv-x="418" d="M122 422l103 -147l107 147h98l-168 -200l162 -222h-111l-109 161l-115 -161h-101l177 215l-154 207h111z" />
<glyph unicode="y" horiz-adv-x="422" d="M115 422l102 -322l139 322h89l-344 -686l-84 24l144 236l-155 426h109z" />
<glyph unicode="z" horiz-adv-x="404" d="M399 422v-40l-263 -319h263l-14 -63h-376v43l264 319h-237v60h363z" />
<glyph unicode="{" horiz-adv-x="378" d="M322 631q-29 -1 -47.5 -6t-29.5 -16.5t-15.5 -29.5t-4.5 -46v-27q0 -20 1 -46v-74q0 -44 -4.5 -74t-16 -49.5t-31.5 -31t-50 -18.5q31 -8 50.5 -19.5t31 -31t16 -49t4.5 -73.5v-75q-1 -26 -1 -46v-26q0 -28 4.5 -46.5t15.5 -29.5t29.5 -16t47.5 -6v-49q-24 0 -41 1 t-30.5 3t-24.5 5.5t-22 8.5q-19 9 -31.5 21t-20 30t-11 43.5t-3.5 60.5v27t1 30l1 91q0 34 -6 57t-19.5 37t-36.5 20.5t-57 7.5v48q33 1 49.5 4.5t29.5 12.5q22 14 31 38.5t9 67.5l-1 90q-1 17 -1 31v26q0 31 2.5 53.5t8 39.5t14 29t21.5 21q21 16 50.5 23t73.5 7h14v-49z " />
<glyph unicode="|" horiz-adv-x="476" d="M285 634v-793h-94v793h94z" />
<glyph unicode="}" horiz-adv-x="378" d="M56 -205q30 1 49 6t30 16t15 29t4 46l-1 73q-1 20 -1 39v36q0 44 4.5 74t16 49.5t31 30.5t50.5 19q-31 7 -50.5 18.5t-31 31t-16 49.5t-4.5 74v36t1 39l1 73q0 27 -4.5 45.5t-16 29.5t-30.5 16t-47 6v49h14q103 0 141 -45q17 -20 23.5 -48.5t6.5 -79.5v-26q0 -14 -1 -31 q-1 -30 -1.5 -56t-0.5 -37q0 -46 12.5 -72.5t40.5 -37.5q11 -5 25 -7t41 -3v-48q-34 -1 -57 -7.5t-36.5 -20.5t-19.5 -36.5t-6 -56.5q0 -11 0.5 -37t1.5 -55q1 -17 1 -31v-27q0 -69 -14.5 -103t-51.5 -51q-11 -5 -22.5 -8.5t-25 -5.5t-30.5 -3t-41 -1v49z" />
<glyph unicode="~" horiz-adv-x="634" d="M87 579q8 16 13 26.5t9 17.5t7 12t8 11q38 53 99 53q19 0 43 -7t61 -22q21 -9 34 -14.5t22.5 -8t16.5 -3.5t15 -1q25 0 41 12t36 45l55 -31q-18 -37 -31.5 -55.5t-31.5 -32.5q-37 -28 -81 -28q-9 0 -19.5 2t-25.5 6.5t-37 13t-54 22.5q-14 5 -27 8.5t-24 3.5 q-23 0 -39.5 -14.5t-36.5 -50.5z" />
<glyph unicode="&#xa1;" horiz-adv-x="359" d="M180 435q26 0 44 -18t18 -44q0 -27 -18.5 -45.5t-44.5 -18.5t-44.5 18.5t-18.5 44.5t18.5 44.5t45.5 18.5zM123 -223v120l37 361h38l37 -361v-120h-112z" />
<glyph unicode="&#xa2;" d="M286 468q-84 -18 -84 -125q0 -108 84 -137v262zM334 609v-69q40 0 65.5 -5.5t45.5 -18.5q12 -8 14.5 -12.5t2.5 -18.5q0 -9 -1 -12t-6 -7l-32 -26h-20q-11 12 -26 18.5t-43 11.5v-269q29 2 56 13t48 31l11 -3l14 -39q1 -2 1 -5q0 -4 -4 -8t-16 -12q-23 -16 -49 -26 t-61 -18v-99h-48v95q-35 2 -59.5 10.5t-46.5 25.5q-32 26 -50 65.5t-18 86.5q0 40 12.5 75.5t35.5 64t55 48.5t71 28v75h48z" />
<glyph unicode="&#xa3;" d="M391 264h-121q5 -17 6.5 -29.5t1.5 -25.5q0 -69 -63 -128q14 5 28 6.5t30 1.5q14 0 32 -2t47 -7q34 -6 49.5 -8t29.5 -2q29 0 48.5 8t36.5 26l15 -7v-42q0 -8 -2.5 -12t-10.5 -11q-49 -43 -122 -43q-23 0 -48.5 3.5t-70.5 11.5q-27 5 -40 7t-25 2q-20 0 -33.5 -4 t-35.5 -16l-6 -2q-5 0 -11 9l-14 22q-5 10 -5 11q0 3 3 6t12 9q31 23 47.5 52.5t16.5 61.5q0 21 -4 44t-14 58h-92v60h77q-8 35 -12 59t-4 46q0 109 86 169q32 23 70.5 35t76.5 12q75 0 119 -42q14 -14 22 -30.5t8 -30.5q0 -18 -12 -22l-58 -23l-18 7q-9 71 -88 71 q-52 0 -81 -30.5t-29 -84.5q0 -12 1 -25t4 -28.5t7.5 -35.5t11.5 -47h134v-60z" />
<glyph unicode="&#xa4;" d="M271 434q-21 0 -40.5 -8.5t-33.5 -23.5t-22.5 -34.5t-8.5 -41.5q0 -23 8.5 -43t23 -34.5t34 -23t41.5 -8.5t41.5 8.5t33.5 23.5t22.5 34.5t8.5 42.5q0 22 -8.5 42t-23 34.5t-34.5 23t-42 8.5zM93 106q-6 -6 -7.5 -7t-3.5 -1q-5 0 -8 5l-24 24q-5 5 -5 7q0 4 7 11l70 70 q-36 52 -36 110t36 110l-70 70q-7 7 -7 11t4 8l24 24q4 4 8 4t10 -7l72 -71q51 36 109 36q30 0 57 -9t53 -26l70 70q6 6 7.5 7t3.5 1q3 0 8 -5l24 -24q5 -5 5 -8q0 -2 -1 -4t-6 -7l-71 -70q19 -27 28 -53.5t9 -56.5q0 -62 -37 -110l70 -70q6 -6 7 -7.5t1 -3.5q0 -3 -5 -8 l-24 -24q-6 -4 -8 -4q-4 0 -11 7l-70 71q-27 -18 -53.5 -26.5t-56.5 -8.5q-29 0 -55 8.5t-54 26.5z" />
<glyph unicode="&#xa5;" d="M135 634l159 -295l166 295h102l-175 -264h130v-45h-159l-31 -46v-29h190v-45h-190v-205h-100v205h-173v45h173v25l-29 50h-144v45h118l-153 264h116z" />
<glyph unicode="&#xa6;" horiz-adv-x="476" d="M285 146v-305h-94v305h94zM285 634v-322h-94v322h94z" />
<glyph unicode="&#xa7;" d="M199 316q-38 -37 -38 -77q0 -18 5 -32.5t19.5 -29.5t40.5 -32.5t68 -42.5q14 -9 24 -15t24 -15q40 34 40 76q0 41 -39 76q-6 5 -12.5 9.5t-17 11.5t-27 17t-41.5 25q-18 11 -26.5 16t-19.5 13zM380 529q-17 25 -37.5 36t-52.5 11q-46 0 -73 -24t-27 -66q0 -18 4.5 -32 t19 -28.5t40.5 -31t68 -40.5q40 -23 68.5 -44t46 -41.5t25.5 -41.5t8 -45q0 -75 -85 -139q26 -24 38 -49t12 -57t-15.5 -65t-43.5 -62q-33 -34 -76.5 -52t-92.5 -18q-38 0 -72 11t-54 30q-5 5 -6.5 8.5t-1.5 9.5q0 11 1 14.5t4 8.5l33 46h17q19 -26 47.5 -39.5t63.5 -13.5 q48 0 78 25.5t30 67.5q0 31 -18 52q-6 8 -13 14.5t-18.5 14.5t-30 19t-48.5 28q-38 22 -65 42t-44 40t-25 41t-8 44q0 38 19 71t59 67q-53 50 -53 113q0 39 17.5 74.5t47 62.5t69 42.5t83.5 15.5q40 0 73 -12.5t50 -34.5q5 -6 5 -20q0 -9 -1 -12t-5 -7l-39 -34h-22z" />
<glyph unicode="&#xa8;" horiz-adv-x="500" d="M346 597q20 0 33.5 -14t13.5 -34t-13.5 -33.5t-33.5 -13.5t-34 13.5t-14 33.5t14 34t34 14zM153 597q20 0 33.5 -14t13.5 -34t-14 -33.5t-34 -13.5q-19 0 -33 13.5t-14 33.5t14 34t34 14z" />
<glyph unicode="&#xa9;" horiz-adv-x="766" d="M528 452q-1 -7 -1.5 -8t-2.5 -3l-4 -3l-4 -1q-2 0 -3 0.5t-6 2.5q-17 7 -45 11.5t-49 4.5q-58 0 -90 -35.5t-32 -99.5t33.5 -102.5t89.5 -38.5q23 0 49 4.5t43 12.5q5 2 6.5 2.5t2.5 0.5l4 -1l3 -3q4 -3 4 -5v-2q0 -1 -1 -6l-5 -31q-2 -7 -9 -8q-17 -6 -48.5 -10 t-57.5 -4q-74 0 -120 30q-37 24 -58 64t-21 86q0 49 22.5 90.5t63.5 67.5q28 19 61 27.5t76 8.5q20 0 39 -1.5t33.5 -4.5t23 -6.5t7.5 -7.5l-1 -3zM379 591q-56 0 -106 -21.5t-87.5 -59t-59 -87.5t-21.5 -107q0 -58 22 -108.5t59.5 -88t88 -59.5t108.5 -22t109 22t88.5 59.5 t59 88.5t21.5 110q0 57 -22 107t-60 87t-89.5 58t-110.5 21zM389 645q67 0 127.5 -26t106 -71t72 -104.5t26.5 -126.5q0 -68 -26.5 -127.5t-72.5 -104t-107.5 -70.5t-131.5 -26q-71 0 -132.5 26t-107 70.5t-72 104.5t-26.5 129q0 68 27 127.5t73.5 103.5t109 69.5 t134.5 25.5z" />
<glyph unicode="&#xaa;" horiz-adv-x="322" d="M196 369q-17 -2 -36.5 -5.5t-36.5 -8.5q-16 -4 -21 -9.5t-5 -16.5q0 -31 36 -31q27 0 63 10v61zM44 475v3q0 6 12 12.5t30 12.5t39.5 9.5t41.5 3.5q51 0 74.5 -19.5t23.5 -61.5v-12l-2 -100q0 -19 1.5 -22t9.5 -3q9 0 17.5 2t22.5 8l7 -4v-26q0 -7 -9 -12 q-15 -8 -35.5 -13t-34.5 -5q-29 0 -38 21q-30 -11 -56 -16t-45 -5q-35 0 -54.5 19.5t-19.5 54.5q0 20 6.5 33.5t25 23t51 16t85.5 12.5q0 15 -0.5 23t-1 12t-1 6t-1.5 4q-8 18 -45 18q-27 0 -44 -7t-33 -25l-24 5z" />
<glyph unicode="&#xab;" horiz-adv-x="485" d="M224 56l-180 181l180 183l35 -21l-109 -162l109 -161zM406 56l-180 181l180 183l35 -21l-109 -162l109 -161z" />
<glyph unicode="&#xac;" horiz-adv-x="476" d="M350 166h-318v87h412v-253h-94v166z" />
<glyph unicode="&#xad;" horiz-adv-x="322" d="M283 278l-16 -79h-228l17 79h227z" />
<glyph unicode="&#xae;" horiz-adv-x="766" d="M320 332q8 -1 13 -1h14q44 0 64.5 16.5t20.5 52.5q0 32 -17.5 45.5t-59.5 13.5h-18t-17 -1v-126zM244 501q11 0 17.5 0.5t12.5 0.5h14h23q17 1 30 1h22q44 0 66.5 -3.5t38.5 -14.5q20 -13 31.5 -34t11.5 -47q0 -70 -82 -99q21 -38 38.5 -64.5t34 -43.5t31.5 -25t32 -9 l-6 -21q-1 -3 -10 -5t-23 -2q-61 0 -98 43q-8 8 -14 16t-13.5 19.5t-18 29t-26.5 46.5q-7 -1 -12 -1h-13h-11v-148h-76v361zM379 591q-56 0 -106 -21.5t-87.5 -59t-59 -87.5t-21.5 -107q0 -58 22 -108.5t59.5 -88t88 -59.5t108.5 -22t109 22t88.5 59.5t59 88.5t21.5 110 q0 57 -22 107t-60 87t-89.5 58t-110.5 21zM389 645q67 0 127.5 -26t106 -71t72 -104.5t26.5 -126.5q0 -68 -26.5 -127.5t-72.5 -104t-107.5 -70.5t-131.5 -26q-71 0 -132.5 26t-107 70.5t-72 104.5t-26.5 129q0 68 27 127.5t73.5 103.5t109 69.5t134.5 25.5z" />
<glyph unicode="&#xaf;" horiz-adv-x="500" d="M381 588v-69h-262v69h262z" />
<glyph unicode="&#xb0;" d="M271 585q-19 0 -36 -7.5t-29.5 -20.5t-20 -30.5t-7.5 -37.5t7.5 -37t20 -29.5t29.5 -20t37 -7.5q19 0 36.5 7.5t30 20.5t20 30t7.5 36q0 41 -27.5 68.5t-67.5 27.5zM274 646q31 0 59 -12.5t49 -34t33.5 -50t12.5 -60.5t-12.5 -60t-33.5 -49t-49.5 -33.5t-60.5 -12.5 t-60.5 12t-49.5 33t-33.5 49t-12.5 60q0 33 12 62t33.5 50.5t50.5 33.5t62 12z" />
<glyph unicode="&#xb1;" horiz-adv-x="545" d="M468 64q11 0 13.5 -2.5t2.5 -13.5v-32q0 -11 -3 -13.5t-15 -2.5h-390q-11 0 -13.5 2.5t-2.5 13.5v32q0 11 2.5 13.5t13.5 2.5h392zM240 513q0 11 2.5 13.5t13.5 2.5h32q12 0 14 -2t2 -16v-162h164q11 0 13.5 -2.5t2.5 -13.5v-32q0 -11 -2.5 -13.5t-15.5 -2.5h-162v-164 q0 -11 -2.5 -13.5t-13.5 -2.5h-32q-10 0 -13 3t-3 13v164h-164q-11 0 -13.5 2.5t-2.5 13.5v32q0 11 2.5 13.5t13.5 2.5h164v164z" />
<glyph unicode="&#xb2;" horiz-adv-x="341" d="M295 253h-264v34q19 18 39 37t38.5 37.5t34 35t26.5 28.5q28 32 39 55t11 49q0 61 -57 61q-67 0 -89 -62q-1 -5 -8 -5h-6q-5 0 -6.5 1.5t-3.5 7.5l-6 25q-2 5 -2 6v3q0 5 6.5 14.5t15.5 18.5q45 43 114 43q56 0 87.5 -27.5t31.5 -75.5q0 -57 -53 -114q-12 -12 -21.5 -22 t-22.5 -22t-32 -28t-48 -40h193z" />
<glyph unicode="&#xb3;" horiz-adv-x="341" d="M89 461q35 13 56.5 23.5t33.5 20t16.5 20t4.5 24.5q0 46 -49 46q-26 0 -48 -12.5t-30 -32.5q-2 -3 -3 -4t-6 -1h-6q-8 0 -10 8l-7 25q-2 5 -2 8t6 9t16 14q23 17 48 25t56 8q51 0 79.5 -21.5t28.5 -59.5q0 -26 -14 -45t-46 -37q42 -8 65 -34t23 -65q0 -29 -12 -53.5 t-34 -42t-51.5 -27.5t-65.5 -10q-73 0 -109 41q-7 8 -8.5 11.5t-1.5 12.5q0 11 7 15l20 9q5 3 6.5 3.5t5.5 0.5h7q6 0 10 -7q20 -43 71 -43q35 0 57.5 23t22.5 58q0 31 -18.5 49t-49.5 18q-12 0 -22.5 -2t-35.5 -9z" />
<glyph unicode="&#xb4;" horiz-adv-x="500" d="M324 644l75 -24v-18l-162 -136l-38 7l119 169z" />
<glyph unicode="&#xb5;" horiz-adv-x="535" d="M462 0h-89v57q-43 -36 -78 -52t-71 -16q-21 0 -36.5 4.5t-30.5 15.5q1 -26 1.5 -47.5t0.5 -53.5v-167h-89v681h91v-220q0 -28 0.5 -46t2 -29.5t3.5 -18.5t6 -13q8 -14 24.5 -22t36.5 -8q29 0 64 14.5t74 41.5v301h90v-422z" />
<glyph unicode="&#xb6;" horiz-adv-x="652" d="M413 540q-21 0 -30.5 -2.5t-14.5 -9.5q-3 -4 -4.5 -7t-2 -9.5t-1 -19.5t-0.5 -36v-287q0 -32 1 -50.5t6 -27.5t14.5 -11t26.5 -2h81v462h-76zM533 686v-110h9q56 1 85.5 11t41.5 33h14l15 -36q2 -6 2 -10q0 -8 -12 -15.5t-32 -11.5q-12 -2 -19.5 -3t-19 -1.5t-31 -1 t-53.5 -1.5v-562q0 -37 -2.5 -63.5t-8.5 -45.5t-16 -32.5t-25 -25.5q-18 -14 -42.5 -23t-42.5 -9q-8 0 -11.5 3.5t-5.5 15.5l-7 35l9 14q108 12 108 132v66q-33 -2 -54 -3t-46 -1q-65 0 -109 7t-82 24q-76 34 -117 97t-41 148q0 65 24.5 118.5t69.5 86.5q41 30 92 43t127 13 h27q16 0 35 -1q17 0 28 -0.5t18 -0.5h14h14v110h44z" />
<glyph unicode="&#xb7;" horiz-adv-x="278" d="M139 303q26 0 44 -19t18 -45t-18.5 -44t-44.5 -18t-44.5 18.5t-18.5 44.5t18.5 44.5t45.5 18.5z" />
<glyph unicode="&#xb8;" horiz-adv-x="500" d="M302 0l-35 -57v-9q29 -17 40.5 -30.5t11.5 -31.5t-10 -36t-26.5 -32t-36.5 -23t-41 -9q-11 0 -22.5 3t-20.5 8t-15 10.5t-6 11.5q0 5 3 10l23 23h13q20 -23 43 -23q15 0 25 8.5t10 20.5t-13 23t-48 30v22l59 81h46z" />
<glyph unicode="&#xb9;" horiz-adv-x="341" d="M226 637v-383h-73v310l-83 -36h-16v44l138 65h34z" />
<glyph unicode="&#xba;" horiz-adv-x="359" d="M176 472q-32 0 -52 -21.5t-20 -56.5q0 -44 23 -73.5t57 -29.5q32 0 51.5 23t19.5 61q0 43 -22 70t-57 27zM188 516q31 0 57 -9.5t45 -26.5t29.5 -41t10.5 -53q0 -30 -11.5 -56t-32.5 -44.5t-50 -29t-63 -10.5q-64 0 -104 36.5t-40 95.5q0 62 44 100t115 38z" />
<glyph unicode="&#xbb;" horiz-adv-x="485" d="M260 420l181 -181l-181 -183l-34 21l108 162l-108 161zM79 420l180 -181l-180 -183l-35 21l109 162l-109 161z" />
<glyph unicode="&#xbc;" horiz-adv-x="770" d="M582 299l-126 -154h126v154zM709 94h-58v-94h-69v94h-190v43l206 244h53v-236h58v-51zM599 634l-435 -644h-63l434 644h64zM222 637v-383h-73v310l-83 -36h-16v44l138 65h34z" />
<glyph unicode="&#xbd;" horiz-adv-x="770" d="M696 0h-264v34q58 54 94.5 90.5t57.5 63.5t29 47t8 40q0 61 -58 61q-48 0 -73 -30q-5 -7 -7 -11t-9 -20q-1 -5 -9 -5h-5q-5 0 -6.5 1t-3.5 8l-6 25q-2 6 -2 9q0 5 6.5 14.5t15.5 17.5q46 43 115 43q55 0 86.5 -27.5t31.5 -75.5q0 -29 -12.5 -56.5t-40.5 -57.5 l-20.5 -20.5t-22 -21t-32 -28t-49.5 -41.5h193zM595 634l-434 -644h-64l435 644h63zM213 637v-383h-73v310l-83 -36h-16v44l138 65h34z" />
<glyph unicode="&#xbe;" horiz-adv-x="770" d="M610 299l-126 -154h126v154zM737 94h-58v-94h-69v94h-190v43l206 244h53v-236h58v-51zM646 634l-435 -644h-63l434 644h64zM97 461q35 13 56.5 23.5t33.5 20t16.5 20t4.5 24.5q0 46 -49 46q-26 0 -48 -12.5t-30 -32.5q-2 -3 -3 -4t-6 -1h-6q-8 0 -10 8l-7 25q-2 5 -2 8 t6 9t16 14q23 17 48 25t56 8q51 0 79.5 -21.5t28.5 -59.5q0 -26 -14 -45t-46 -37q42 -8 65 -34t23 -65q0 -29 -12 -53.5t-34 -42t-51.5 -27.5t-65.5 -10q-73 0 -109 41q-7 8 -8.5 11.5t-1.5 12.5q0 11 7 15l20 9q5 3 6.5 3.5t5.5 0.5h7q6 0 10 -7q20 -43 71 -43 q35 0 57.5 23t22.5 58q0 31 -18.5 49t-49.5 18q-12 0 -22.5 -2t-35.5 -9z" />
<glyph unicode="&#xbf;" horiz-adv-x="430" d="M283 433q25 0 43 -18t18 -43q0 -26 -18 -44.5t-44 -18.5t-44 18.5t-18 44.5t18.5 43.5t44.5 17.5zM364 -170q2 -6 2.5 -8t0.5 -5q0 -14 -10 -20q-17 -9 -44.5 -15.5t-52.5 -6.5q-42 0 -79.5 16.5t-66 44.5t-45.5 64.5t-17 77.5q0 28 10 53t27 43q7 7 14.5 13t17.5 12.5 t24 14.5t35 19q27 15 42 24.5t22.5 22t9 31.5t2.5 53h53l2 -24q2 -26 3 -48.5t1 -33.5q0 -37 -21 -57q-6 -6 -10 -9.5t-11 -8.5t-19.5 -12.5t-33.5 -20.5q-29 -17 -46.5 -29t-27 -22.5t-13 -21.5t-3.5 -25q0 -42 30 -68.5t76 -26.5q41 0 86 24h23z" />
<glyph unicode="&#xc0;" horiz-adv-x="633" d="M395 697l-39 -13l-195 117l-3 19l76 37h8zM320 533l-113 -274h215zM379 634l252 -634h-113l-73 199h-264l-81 -199h-97l298 634h78z" />
<glyph unicode="&#xc1;" horiz-adv-x="633" d="M428 857l75 -37l-3 -19l-195 -117l-39 13l153 160h9zM320 533l-113 -274h215zM379 634l252 -634h-113l-73 199h-264l-81 -199h-97l298 634h78z" />
<glyph unicode="&#xc2;" horiz-adv-x="633" d="M355 860l142 -161l-34 -22l-131 101l-131 -101l-33 22l141 161h46zM320 533l-113 -274h215zM379 634l252 -634h-113l-73 199h-264l-81 -199h-97l298 634h78z" />
<glyph unicode="&#xc3;" horiz-adv-x="633" d="M484 819l27 -18q-43 -97 -114 -97q-16 0 -31.5 4.5t-43.5 17.5q-23 11 -33 14t-21 3q-18 0 -32.5 -9.5t-30.5 -31.5h-5l-28 17q26 53 52.5 75.5t60.5 22.5q7 0 13 -0.5t13.5 -3t19 -7t29.5 -12.5q20 -9 32 -12.5t22 -3.5q38 0 64 41h6zM320 533l-113 -274h215zM379 634 l252 -634h-113l-73 199h-264l-81 -199h-97l298 634h78z" />
<glyph unicode="&#xc4;" horiz-adv-x="633" d="M440 803q20 0 35 -15t15 -36t-15 -35.5t-36 -14.5q-20 0 -35 15t-15 35q0 22 15 36.5t36 14.5zM228 803q20 0 35 -15t15 -36q0 -20 -15 -35t-36 -15q-20 0 -35 14.5t-15 35.5q0 22 14.5 36.5t36.5 14.5zM320 533l-113 -274h215zM379 634l252 -634h-113l-73 199h-264 l-81 -199h-97l298 634h78z" />
<glyph unicode="&#xc5;" horiz-adv-x="633" d="M340 839q-23 0 -37.5 -16.5t-14.5 -41.5q0 -26 15 -42.5t38 -16.5t37 15.5t14 41.5q0 27 -14.5 43.5t-37.5 16.5zM341 884q23 0 43 -8t35 -22t23.5 -33t8.5 -40t-8.5 -39.5t-23.5 -32t-35.5 -21.5t-44.5 -8q-23 0 -43 8t-35 21.5t-23.5 32t-8.5 39.5q0 22 8.5 40.5 t23.5 32.5t35.5 22t44.5 8zM320 533l-113 -274h215zM379 634l252 -634h-113l-73 199h-264l-81 -199h-97l298 634h78z" />
<glyph unicode="&#xc6;" horiz-adv-x="903" d="M447 572h-7l-180 -277h187v277zM872 634v-64h-327v-202h291v-65h-291v-235h333v-68h-431v235h-226l-154 -235h-104l442 634h467z" />
<glyph unicode="&#xc7;" horiz-adv-x="644" d="M390 -58v-10q30 -18 41.5 -31.5t11.5 -32.5t-10.5 -37.5t-27 -33t-37.5 -23.5t-43 -9q-11 0 -22.5 3t-21 8t-15.5 11t-6 12t4 10l23 24h14q20 -24 43 -24q16 0 26 8.5t10 22.5q0 12 -13.5 23.5t-48.5 29.5v23l53 73q-51 3 -85 10t-67 23q-40 19 -72.5 48.5t-55 66 t-34.5 79.5t-12 89q0 86 39.5 159t111.5 119q49 32 108 47.5t134 15.5q24 0 51 -2t51.5 -5.5t44.5 -8t30 -9.5q8 -4 8 -12v-4l-6 -51q-1 -5 -2 -7t-5 -4l-8 -3q-2 -2 -5 -2q-2 0 -4.5 1t-13.5 6q-36 17 -83.5 27.5t-94.5 10.5q-92 0 -157 -51q-87 -69 -87 -210 q0 -60 18 -110t51 -86t78.5 -56t100.5 -20q51 0 99.5 12t86.5 35q1 1 3 1t6 -3l7 -5q4 -2 4.5 -3t0.5 -3q0 -1 -1 -6l-8 -50q-2 -8 -4.5 -10.5t-16.5 -5.5q-37 -11 -77 -16t-85 -7z" />
<glyph unicode="&#xc8;" horiz-adv-x="552" d="M381 697l-39 -13l-195 117l-3 19l76 37h8zM520 634v-64h-326v-202h290v-65h-290v-235h333v-68h-436v634h429z" />
<glyph unicode="&#xc9;" horiz-adv-x="552" d="M384 857l75 -37l-3 -19l-195 -117l-39 13l153 160h9zM520 634v-64h-326v-202h290v-65h-290v-235h333v-68h-436v634h429z" />
<glyph unicode="&#xca;" horiz-adv-x="552" d="M322 860l142 -161l-34 -22l-131 101l-131 -101l-33 22l141 161h46zM520 634v-64h-326v-202h290v-65h-290v-235h333v-68h-436v634h429z" />
<glyph unicode="&#xcb;" horiz-adv-x="552" d="M413 803q20 0 35 -15t15 -36t-15 -35.5t-36 -14.5q-20 0 -35 15t-15 35q0 22 15 36.5t36 14.5zM201 803q20 0 35 -15t15 -36q0 -20 -15 -35t-36 -15q-20 0 -35 14.5t-15 35.5q0 22 14.5 36.5t36.5 14.5zM520 634v-64h-326v-202h290v-65h-290v-235h333v-68h-436v634h429z " />
<glyph unicode="&#xcc;" horiz-adv-x="285" d="M206 697l-39 -13l-195 117l-3 19l76 37h8zM194 634v-634h-103v634h103z" />
<glyph unicode="&#xcd;" horiz-adv-x="285" d="M241 857l75 -37l-3 -19l-195 -117l-39 13l153 160h9zM195 634v-634h-103v634h103z" />
<glyph unicode="&#xce;" horiz-adv-x="285" d="M165 860l122 -161l-33 -22l-112 101l-112 -101l-33 22l122 161h46zM194 634v-634h-103v634h103z" />
<glyph unicode="&#xcf;" horiz-adv-x="285" d="M222 803q20 0 35 -15t15 -36t-15 -35.5t-36 -14.5q-20 0 -35 14.5t-15 35.5q0 22 14.5 36.5t36.5 14.5zM62 803q20 0 35 -15t15 -36q0 -20 -15 -35t-36 -15q-20 0 -35 14.5t-15 35.5q0 22 14.5 36.5t36.5 14.5zM194 634v-634h-103v634h103z" />
<glyph unicode="&#xd0;" horiz-adv-x="737" d="M194 62h113q143 0 203 60q34 33 52 86t18 119q0 75 -24.5 130.5t-71.5 86.5q-31 20 -67.5 28t-97.5 8q-19 0 -50 -1t-75 -3v-214h194v-61h-194v-239zM5 301v61h86v272q51 2 88.5 3.5t66 2t50.5 1t41 0.5q49 0 87 -3.5t69 -12t55.5 -21.5t46.5 -32q48 -41 72.5 -102 t24.5 -136q0 -91 -36.5 -162.5t-104.5 -114.5q-48 -31 -109.5 -44t-155.5 -13h-195v301h-86z" />
<glyph unicode="&#xd1;" horiz-adv-x="737" d="M525 819l27 -18q-43 -97 -114 -97q-16 0 -31.5 4.5t-43.5 17.5q-23 11 -33 14t-21 3q-18 0 -32.5 -9.5t-30.5 -31.5h-5l-28 17q26 53 52.5 75.5t60.5 22.5q7 0 13 -0.5t13.5 -3t19 -7t29.5 -12.5q20 -9 32 -12.5t22 -3.5q38 0 64 41h6zM158 634l422 -480l-12 480h82 l-1 -629l-53 -16l-445 504l12 -493h-82l2 634h75z" />
<glyph unicode="&#xd2;" horiz-adv-x="785" d="M456 697l-39 -13l-195 117l-3 19l76 37h8zM387 583q-50 0 -92.5 -19t-73 -52.5t-47.5 -80.5t-17 -103q0 -59 19 -109.5t52 -88t77.5 -58.5t96.5 -21q49 0 90.5 19t72 53t47.5 81t17 102q0 65 -23 122.5t-65 96.5q-61 58 -154 58zM408 649q73 0 134 -24t105 -67t69 -102.5 t25 -130.5q0 -74 -26.5 -136.5t-74 -107.5t-113 -70.5t-143.5 -25.5q-63 0 -118.5 18t-99.5 53q-57 45 -89 113.5t-32 142.5q0 73 27.5 134.5t76 106.5t115 70.5t144.5 25.5z" />
<glyph unicode="&#xd3;" horiz-adv-x="785" d="M491 857l75 -37l-3 -19l-195 -117l-39 13l153 160h9zM387 583q-50 0 -92.5 -19t-73 -52.5t-47.5 -80.5t-17 -103q0 -59 19 -109.5t52 -88t77.5 -58.5t96.5 -21q49 0 90.5 19t72 53t47.5 81t17 102q0 65 -23 122.5t-65 96.5q-61 58 -154 58zM408 649q73 0 134 -24t105 -67 t69 -102.5t25 -130.5q0 -74 -26.5 -136.5t-74 -107.5t-113 -70.5t-143.5 -25.5q-63 0 -118.5 18t-99.5 53q-57 45 -89 113.5t-32 142.5q0 73 27.5 134.5t76 106.5t115 70.5t144.5 25.5z" />
<glyph unicode="&#xd4;" horiz-adv-x="785" d="M416 860l142 -161l-34 -22l-131 101l-131 -101l-33 22l141 161h46zM387 583q-50 0 -92.5 -19t-73 -52.5t-47.5 -80.5t-17 -103q0 -59 19 -109.5t52 -88t77.5 -58.5t96.5 -21q49 0 90.5 19t72 53t47.5 81t17 102q0 65 -23 122.5t-65 96.5q-61 58 -154 58zM408 649 q73 0 134 -24t105 -67t69 -102.5t25 -130.5q0 -74 -26.5 -136.5t-74 -107.5t-113 -70.5t-143.5 -25.5q-63 0 -118.5 18t-99.5 53q-57 45 -89 113.5t-32 142.5q0 73 27.5 134.5t76 106.5t115 70.5t144.5 25.5z" />
<glyph unicode="&#xd5;" horiz-adv-x="785" d="M539 819l27 -18q-43 -97 -114 -97q-16 0 -31.5 4.5t-43.5 17.5q-23 11 -33 14t-21 3q-18 0 -32.5 -9.5t-30.5 -31.5h-5l-28 17q26 53 52.5 75.5t60.5 22.5q7 0 13 -0.5t13.5 -3t19 -7t29.5 -12.5q20 -9 32 -12.5t22 -3.5q38 0 64 41h6zM387 583q-50 0 -92.5 -19 t-73 -52.5t-47.5 -80.5t-17 -103q0 -59 19 -109.5t52 -88t77.5 -58.5t96.5 -21q49 0 90.5 19t72 53t47.5 81t17 102q0 65 -23 122.5t-65 96.5q-61 58 -154 58zM408 649q73 0 134 -24t105 -67t69 -102.5t25 -130.5q0 -74 -26.5 -136.5t-74 -107.5t-113 -70.5t-143.5 -25.5 q-63 0 -118.5 18t-99.5 53q-57 45 -89 113.5t-32 142.5q0 73 27.5 134.5t76 106.5t115 70.5t144.5 25.5z" />
<glyph unicode="&#xd6;" horiz-adv-x="785" d="M499 803q20 0 35 -15t15 -36t-15 -35.5t-36 -14.5q-20 0 -35 15t-15 35q0 22 15 36.5t36 14.5zM287 803q20 0 35 -15t15 -36q0 -20 -15 -35t-36 -15q-20 0 -35 14.5t-15 35.5q0 22 14.5 36.5t36.5 14.5zM387 583q-50 0 -92.5 -19t-73 -52.5t-47.5 -80.5t-17 -103 q0 -59 19 -109.5t52 -88t77.5 -58.5t96.5 -21q49 0 90.5 19t72 53t47.5 81t17 102q0 65 -23 122.5t-65 96.5q-61 58 -154 58zM408 649q73 0 134 -24t105 -67t69 -102.5t25 -130.5q0 -74 -26.5 -136.5t-74 -107.5t-113 -70.5t-143.5 -25.5q-63 0 -118.5 18t-99.5 53 q-57 45 -89 113.5t-32 142.5q0 73 27.5 134.5t76 106.5t115 70.5t144.5 25.5z" />
<glyph unicode="&#xd7;" d="M95 448q-7 7 -7 11t8 12l22 22q9 9 12 9q2 0 3.5 -1.5t9.5 -8.5l129 -129l131 131q7 7 11 7t11 -7l23 -23q8 -8 8 -12q0 -2 -1.5 -4t-7.5 -8l-130 -130l131 -131q8 -7 8 -10q0 -4 -8 -12l-23 -23q-8 -8 -12 -8q-2 0 -3.5 1.5l-6.5 6.5l-131 131l-131 -131q-5 -5 -7 -6.5 t-4 -1.5q-4 0 -12 8l-22 23q-8 6 -8 12q0 3 7 10l131 131z" />
<glyph unicode="&#xd8;" horiz-adv-x="785" d="M268 94q66 -42 134 -42q49 0 90.5 19t72 53t47.5 81t17 102q0 114 -71 202zM522 541q-26 20 -61 31t-73 11q-51 0 -93 -19t-73 -52.5t-48 -80.5t-17 -103q0 -116 75 -203zM631 680h60l-72 -97q60 -47 91 -113.5t31 -144.5q0 -74 -26.5 -136.5t-74 -107.5t-113 -70.5 t-143.5 -25.5q-92 0 -173 42l-57 -79h-59l76 104q-60 48 -93 115.5t-33 145.5q0 72 27.5 133.5t75.5 106.5t113.5 70.5t141.5 25.5q101 0 176 -41z" />
<glyph unicode="&#xd9;" horiz-adv-x="700" d="M419 697l-39 -13l-195 117l-3 19l76 37h8zM185 634v-340q0 -49 1 -80t4 -50.5t9 -31.5t16 -23q19 -21 55.5 -33t83.5 -12q57 0 100.5 20.5t62.5 55.5q6 11 10.5 25.5t7 34.5t3.5 47t1 65v322h82l-3 -321q0 -58 -4 -99.5t-13 -71.5t-23.5 -51.5t-36.5 -39.5 q-77 -63 -214 -63q-151 0 -208 81q-12 17 -19 34t-11 41.5t-5.5 59.5t-1.5 87v343h103z" />
<glyph unicode="&#xda;" horiz-adv-x="700" d="M450 857l75 -37l-3 -19l-195 -117l-39 13l153 160h9zM185 634v-340q0 -49 1 -80t4 -50.5t9 -31.5t16 -23q19 -21 55.5 -33t83.5 -12q57 0 100.5 20.5t62.5 55.5q6 11 10.5 25.5t7 34.5t3.5 47t1 65v322h82l-3 -321q0 -58 -4 -99.5t-13 -71.5t-23.5 -51.5t-36.5 -39.5 q-77 -63 -214 -63q-151 0 -208 81q-12 17 -19 34t-11 41.5t-5.5 59.5t-1.5 87v343h103z" />
<glyph unicode="&#xdb;" horiz-adv-x="700" d="M379 860l142 -161l-34 -22l-131 101l-131 -101l-33 22l141 161h46zM185 634v-340q0 -49 1 -80t4 -50.5t9 -31.5t16 -23q19 -21 55.5 -33t83.5 -12q57 0 100.5 20.5t62.5 55.5q6 11 10.5 25.5t7 34.5t3.5 47t1 65v322h82l-3 -321q0 -58 -4 -99.5t-13 -71.5t-23.5 -51.5 t-36.5 -39.5q-77 -63 -214 -63q-151 0 -208 81q-12 17 -19 34t-11 41.5t-5.5 59.5t-1.5 87v343h103z" />
<glyph unicode="&#xdc;" horiz-adv-x="700" d="M462 803q20 0 35 -15t15 -36t-15 -35.5t-36 -14.5q-20 0 -35 15t-15 35q0 22 15 36.5t36 14.5zM250 803q20 0 35 -15t15 -36q0 -20 -15 -35t-36 -15q-20 0 -35 14.5t-15 35.5q0 22 14.5 36.5t36.5 14.5zM185 634v-340q0 -49 1 -80t4 -50.5t9 -31.5t16 -23 q19 -21 55.5 -33t83.5 -12q57 0 100.5 20.5t62.5 55.5q6 11 10.5 25.5t7 34.5t3.5 47t1 65v322h82l-3 -321q0 -58 -4 -99.5t-13 -71.5t-23.5 -51.5t-36.5 -39.5q-77 -63 -214 -63q-151 0 -208 81q-12 17 -19 34t-11 41.5t-5.5 59.5t-1.5 87v343h103z" />
<glyph unicode="&#xdd;" horiz-adv-x="500" d="M354 857l75 -37l-3 -19l-195 -117l-39 13l153 160h9zM91 634l171 -290l175 290h107l-249 -355v-279h-103v275l-222 359h121z" />
<glyph unicode="&#xde;" horiz-adv-x="559" d="M194 207q20 -2 33 -2.5t32 -0.5q92 0 133 32.5t41 105.5q0 43 -16.5 73.5t-47.5 44.5q-16 7 -40.5 10.5t-59.5 3.5q-15 0 -37.5 -0.5t-37.5 -1.5v-265zM194 634v-101q20 1 33.5 2t24 1.5t19.5 0.5h20q62 0 103.5 -8.5t70.5 -27.5q37 -23 57.5 -63.5t20.5 -90.5 q0 -54 -25.5 -98.5t-72.5 -71.5q-34 -20 -76.5 -28t-111.5 -8h-30t-33 1v-142h-103v634h103z" />
<glyph unicode="&#xdf;" horiz-adv-x="563" d="M69 431q0 42 2.5 72t9.5 52.5t18.5 39.5t28.5 34q69 64 187 64q79 0 121 -32.5t42 -95.5q0 -23 -5 -41t-17 -33.5t-31.5 -31t-49.5 -32.5q-37 -20 -50.5 -36t-13.5 -39q0 -28 23 -49q5 -4 10 -7t13 -7.5t20 -10.5t31 -15q34 -16 57.5 -31t37.5 -30.5t20.5 -33.5t6.5 -39 q0 -32 -13.5 -57.5t-38 -44.5t-59 -29t-76.5 -10q-14 0 -31 1.5t-33 4.5t-29 6.5t-19 6.5t-7 10l-8 60l22 12q53 -41 114 -41q36 0 57 17.5t21 47.5q0 12 -3.5 21.5t-12 18.5t-23.5 17.5t-38 19.5q-39 18 -64.5 33.5t-40.5 31.5t-20.5 34t-5.5 41q0 19 4 34.5t15 29.5t30 29 t49 35q38 24 51.5 44.5t13.5 51.5q0 75 -92 75q-43 0 -72.5 -14.5t-41.5 -42.5q-5 -11 -8 -21t-4.5 -24.5t-2 -37t-0.5 -56.5v-433h-95v431z" />
<glyph unicode="&#xe0;" horiz-adv-x="497" d="M322 473l-38 -7l-162 136v18l75 24l6 -2zM314 198q-38 -6 -67.5 -11.5t-58.5 -13.5t-38 -18t-9 -35q0 -32 15.5 -46.5t50.5 -14.5q11 0 21.5 1t22.5 3t27 6t36 10v119zM75 370q2 11 6 14q15 11 35.5 20t44 15.5t49.5 10t51 3.5q100 0 131 -55q8 -15 12 -38t3 -58l-3 -170 v-19v-11t0.5 -5.5l1.5 -4.5q4 -12 21 -12q26 0 63 17l4 -3v-39q0 -8 -10 -14q-11 -6 -25 -12t-29 -10t-29 -6.5t-24 -2.5q-41 0 -54 38q-53 -20 -92.5 -29t-71.5 -9q-51 0 -80 31.5t-29 87.5q0 44 16.5 67t58.5 36q37 11 82 19.5t108 16.5q0 25 -0.5 39.5t-1 23t-1.5 12.5 t-3 9q-14 35 -78 35q-44 0 -72.5 -12.5t-52.5 -41.5l-28 7z" />
<glyph unicode="&#xe1;" horiz-adv-x="497" d="M314 644l75 -24v-18l-162 -136l-38 7l119 169zM314 198q-38 -6 -67.5 -11.5t-58.5 -13.5t-38 -18t-9 -35q0 -32 15.5 -46.5t50.5 -14.5q11 0 21.5 1t22.5 3t27 6t36 10v119zM75 370q2 11 6 14q15 11 35.5 20t44 15.5t49.5 10t51 3.5q100 0 131 -55q8 -15 12 -38t3 -58 l-3 -170v-19v-11t0.5 -5.5l1.5 -4.5q4 -12 21 -12q26 0 63 17l4 -3v-39q0 -8 -10 -14q-11 -6 -25 -12t-29 -10t-29 -6.5t-24 -2.5q-41 0 -54 38q-53 -20 -92.5 -29t-71.5 -9q-51 0 -80 31.5t-29 87.5q0 44 16.5 67t58.5 36q37 11 82 19.5t108 16.5q0 25 -0.5 39.5t-1 23 t-1.5 12.5t-3 9q-14 35 -78 35q-44 0 -72.5 -12.5t-52.5 -41.5l-28 7z" />
<glyph unicode="&#xe2;" horiz-adv-x="497" d="M274 642l114 -161l-31 -17l-107 95l-108 -95l-30 17l114 161h48zM314 198q-38 -6 -67.5 -11.5t-58.5 -13.5t-38 -18t-9 -35q0 -32 15.5 -46.5t50.5 -14.5q11 0 21.5 1t22.5 3t27 6t36 10v119zM75 370q2 11 6 14q15 11 35.5 20t44 15.5t49.5 10t51 3.5q100 0 131 -55 q8 -15 12 -38t3 -58l-3 -170v-19v-11t0.5 -5.5l1.5 -4.5q4 -12 21 -12q26 0 63 17l4 -3v-39q0 -8 -10 -14q-11 -6 -25 -12t-29 -10t-29 -6.5t-24 -2.5q-41 0 -54 38q-53 -20 -92.5 -29t-71.5 -9q-51 0 -80 31.5t-29 87.5q0 44 16.5 67t58.5 36q37 11 82 19.5t108 16.5 q0 25 -0.5 39.5t-1 23t-1.5 12.5t-3 9q-14 35 -78 35q-44 0 -72.5 -12.5t-52.5 -41.5l-28 7z" />
<glyph unicode="&#xe3;" horiz-adv-x="497" d="M385 626l25 -21q-19 -51 -46.5 -78t-59.5 -27q-17 0 -31.5 6.5t-40.5 23.5q-21 14 -31 18.5t-21 4.5q-17 0 -30.5 -13.5t-28.5 -42.5h-5l-26 20q24 56 49 81.5t57 25.5q7 0 12.5 -1t12.5 -4t17.5 -9.5t28.5 -17.5q37 -22 51 -22q36 0 62 56h5zM314 198 q-38 -6 -67.5 -11.5t-58.5 -13.5t-38 -18t-9 -35q0 -32 15.5 -46.5t50.5 -14.5q11 0 21.5 1t22.5 3t27 6t36 10v119zM75 370q2 11 6 14q15 11 35.5 20t44 15.5t49.5 10t51 3.5q100 0 131 -55q8 -15 12 -38t3 -58l-3 -170v-19v-11t0.5 -5.5l1.5 -4.5q4 -12 21 -12q26 0 63 17 l4 -3v-39q0 -8 -10 -14q-11 -6 -25 -12t-29 -10t-29 -6.5t-24 -2.5q-41 0 -54 38q-53 -20 -92.5 -29t-71.5 -9q-51 0 -80 31.5t-29 87.5q0 44 16.5 67t58.5 36q37 11 82 19.5t108 16.5q0 25 -0.5 39.5t-1 23t-1.5 12.5t-3 9q-14 35 -78 35q-44 0 -72.5 -12.5t-52.5 -41.5 l-28 7z" />
<glyph unicode="&#xe4;" horiz-adv-x="497" d="M346 597q20 0 33.5 -14t13.5 -34t-13.5 -33.5t-33.5 -13.5t-34 13.5t-14 33.5t14 34t34 14zM153 597q20 0 33.5 -14t13.5 -34t-14 -33.5t-34 -13.5q-19 0 -33 13.5t-14 33.5t14 34t34 14zM314 198q-38 -6 -67.5 -11.5t-58.5 -13.5t-38 -18t-9 -35q0 -32 15.5 -46.5 t50.5 -14.5q11 0 21.5 1t22.5 3t27 6t36 10v119zM75 370q2 11 6 14q15 11 35.5 20t44 15.5t49.5 10t51 3.5q100 0 131 -55q8 -15 12 -38t3 -58l-3 -170v-19v-11t0.5 -5.5l1.5 -4.5q4 -12 21 -12q26 0 63 17l4 -3v-39q0 -8 -10 -14q-11 -6 -25 -12t-29 -10t-29 -6.5t-24 -2.5 q-41 0 -54 38q-53 -20 -92.5 -29t-71.5 -9q-51 0 -80 31.5t-29 87.5q0 44 16.5 67t58.5 36q37 11 82 19.5t108 16.5q0 25 -0.5 39.5t-1 23t-1.5 12.5t-3 9q-14 35 -78 35q-44 0 -72.5 -12.5t-52.5 -41.5l-28 7z" />
<glyph unicode="&#xe5;" horiz-adv-x="497" d="M250 627q-23 0 -37 -16t-14 -40q0 -25 14.5 -41t37.5 -16q22 0 35.5 15.5t13.5 39.5q0 26 -13.5 42t-36.5 16zM251 671q45 0 75.5 -29t30.5 -71q0 -21 -8.5 -38.5t-23 -31t-34 -21t-42.5 -7.5t-42.5 7.5t-33.5 21t-22.5 31t-8.5 38.5t8.5 39t23 31.5t34.5 21.5t43 8z M314 198q-38 -6 -67.5 -11.5t-58.5 -13.5t-38 -18t-9 -35q0 -32 15.5 -46.5t50.5 -14.5q11 0 21.5 1t22.5 3t27 6t36 10v119zM75 370q2 11 6 14q15 11 35.5 20t44 15.5t49.5 10t51 3.5q100 0 131 -55q8 -15 12 -38t3 -58l-3 -170v-19v-11t0.5 -5.5l1.5 -4.5q4 -12 21 -12 q26 0 63 17l4 -3v-39q0 -8 -10 -14q-11 -6 -25 -12t-29 -10t-29 -6.5t-24 -2.5q-41 0 -54 38q-53 -20 -92.5 -29t-71.5 -9q-51 0 -80 31.5t-29 87.5q0 44 16.5 67t58.5 36q37 11 82 19.5t108 16.5q0 25 -0.5 39.5t-1 23t-1.5 12.5t-3 9q-14 35 -78 35q-44 0 -72.5 -12.5 t-52.5 -41.5l-28 7z" />
<glyph unicode="&#xe6;" horiz-adv-x="701" d="M301 200q-76 -12 -114 -28q-24 -10 -33 -22t-9 -35q0 -59 56 -59q26 0 55.5 10t57.5 28q-4 13 -6 24t-3.5 22.5t-2.5 25.5t-1 34zM562 278q-3 48 -23.5 74t-56.5 26q-85 0 -88 -122zM394 202q4 -77 32 -111t88 -34q35 0 65.5 9.5t68.5 31.5h7l13 -39q1 -1 1 -3 q0 -4 -5 -8t-22 -14q-43 -24 -83.5 -35.5t-85.5 -11.5t-77 14t-57 44q-30 -16 -54 -26.5t-45 -17t-40 -9.5t-39 -3q-56 0 -85.5 29.5t-29.5 86.5q0 45 20 70.5t68 41.5q11 3 24 6.5t31.5 8t45.5 9.5t67 13q0 21 -0.5 33t-1 18.5t-1 10.5t-1.5 10q-9 43 -70 43 q-78 0 -132 -56l-21 7l-7 55l-1 7q0 4 5.5 7t21.5 11q33 15 74.5 23.5t80.5 8.5q45 0 71 -10.5t45 -33.5q29 23 60.5 34t71.5 11q169 0 169 -200z" />
<glyph unicode="&#xe7;" horiz-adv-x="437" d="M365 332q-26 18 -47.5 25t-50.5 7q-61 0 -94 -37t-33 -106q0 -72 36.5 -116t96.5 -44q68 0 132 40l8 -4v-36q0 -6 -2 -9.5t-8 -8.5q-21 -15 -52.5 -28t-66.5 -21l-31 -50v-10q29 -17 40.5 -30.5t11.5 -31.5t-10 -36t-26 -32t-36 -23t-41 -9q-11 0 -22.5 3t-20.5 8t-15 11 t-6 12q0 4 3 9l23 23h13q20 -23 42 -23q15 0 25 8.5t10 20.5t-13 23.5t-47 29.5v22l49 69q-42 0 -77.5 14.5t-60.5 41t-39 63t-14 81.5q0 52 20 97t55 78t82.5 51.5t103.5 18.5q33 0 64 -9t48 -24q4 -3 4.5 -6t0.5 -14q0 -9 -1 -11.5t-5 -7.5l-31 -29h-18z" />
<glyph unicode="&#xe8;" horiz-adv-x="452" d="M299 473l-38 -7l-162 136v18l75 24l6 -2zM315 271q-5 107 -79 107q-42 0 -67 -34.5t-27 -94.5zM143 196q4 -66 35.5 -101t88.5 -35q35 0 65.5 9t65.5 29h8l13 -38v-2v-2q0 -3 -3.5 -6t-13.5 -10q-38 -25 -82 -38.5t-86 -13.5q-90 0 -141 56.5t-51 156.5q0 52 15 95 t42 73.5t65 47t84 16.5q84 0 127 -52t44 -155z" />
<glyph unicode="&#xe9;" horiz-adv-x="452" d="M300 644l75 -24v-18l-162 -136l-38 7l119 169zM315 271q-5 107 -79 107q-42 0 -67 -34.5t-27 -94.5zM143 196q4 -66 35.5 -101t88.5 -35q35 0 65.5 9t65.5 29h8l13 -38v-2v-2q0 -3 -3.5 -6t-13.5 -10q-38 -25 -82 -38.5t-86 -13.5q-90 0 -141 56.5t-51 156.5q0 52 15 95 t42 73.5t65 47t84 16.5q84 0 127 -52t44 -155z" />
<glyph unicode="&#xea;" horiz-adv-x="452" d="M264 642l114 -161l-31 -17l-107 95l-108 -95l-30 17l114 161h48zM315 271q-5 107 -79 107q-42 0 -67 -34.5t-27 -94.5zM143 196q4 -66 35.5 -101t88.5 -35q35 0 65.5 9t65.5 29h8l13 -38v-2v-2q0 -3 -3.5 -6t-13.5 -10q-38 -25 -82 -38.5t-86 -13.5q-90 0 -141 56.5 t-51 156.5q0 52 15 95t42 73.5t65 47t84 16.5q84 0 127 -52t44 -155z" />
<glyph unicode="&#xeb;" horiz-adv-x="452" d="M344 597q20 0 33.5 -14t13.5 -34t-13.5 -33.5t-33.5 -13.5t-34 13.5t-14 33.5t14 34t34 14zM151 597q20 0 33.5 -14t13.5 -34t-14 -33.5t-34 -13.5q-19 0 -33 13.5t-14 33.5t14 34t34 14zM315 271q-5 107 -79 107q-42 0 -67 -34.5t-27 -94.5zM143 196q4 -66 35.5 -101 t88.5 -35q35 0 65.5 9t65.5 29h8l13 -38v-2v-2q0 -3 -3.5 -6t-13.5 -10q-38 -25 -82 -38.5t-86 -13.5q-90 0 -141 56.5t-51 156.5q0 52 15 95t42 73.5t65 47t84 16.5q84 0 127 -52t44 -155z" />
<glyph unicode="&#xec;" horiz-adv-x="241" d="M166 473l-38 -7l-162 136v18l75 24l6 -2zM167 422v-422h-95v422h95z" />
<glyph unicode="&#xed;" horiz-adv-x="241" d="M199 644l75 -24v-18l-162 -136l-38 7l119 169zM168 422v-422h-95v422h95z" />
<glyph unicode="&#xee;" horiz-adv-x="241" d="M145 642l97 -161l-31 -17l-90 95l-91 -95l-30 17l97 161h48zM168 422v-422h-95v422h95z" />
<glyph unicode="&#xef;" horiz-adv-x="241" d="M190 597q20 0 33.5 -14t13.5 -34t-13.5 -33.5t-33.5 -13.5t-34 13.5t-14 33.5t14 34t34 14zM49 597q20 0 33.5 -14t13.5 -34t-14 -33.5t-34 -13.5q-19 0 -33 13.5t-14 33.5t14 34t34 14zM167 422v-422h-95v422h95z" />
<glyph unicode="&#xf0;" horiz-adv-x="555" d="M272 373q-57 0 -92.5 -39t-35.5 -103q0 -39 11 -72t29.5 -58t44 -39t55.5 -14q28 0 51 11t39.5 31t26 47.5t9.5 60.5q0 38 -10 70t-28.5 55.5t-44 36.5t-55.5 13zM299 691l45 -75l81 44l25 -45l-81 -43q41 -71 68.5 -124.5t44.5 -95.5t24 -76t7 -66q0 -47 -19 -88 t-52 -71t-77.5 -47t-96.5 -17q-50 0 -91.5 16t-71.5 45t-46.5 69.5t-16.5 88.5q0 49 18 90.5t50 72t75.5 47.5t94.5 17q26 0 47 -5t41 -16q-5 12 -13 28l-16.5 33t-17.5 33t-16 29l-80 -42l-25 45l81 42q-14 28 -23 43t-20 35z" />
<glyph unicode="&#xf1;" horiz-adv-x="537" d="M415 621l25 -21q-19 -51 -46.5 -78t-59.5 -27q-17 0 -31.5 6.5t-40.5 23.5q-21 14 -31 18.5t-21 4.5q-17 0 -30.5 -13.5t-28.5 -42.5h-5l-26 20q24 56 49 81.5t57 25.5q7 0 12.5 -1t12.5 -4t17.5 -9.5t28.5 -17.5q37 -22 51 -22q36 0 62 56h5zM167 422v-59 q28 20 51.5 33.5t43.5 21.5t39.5 11.5t40.5 3.5q78 0 109 -57q5 -9 8 -18t4.5 -22t2 -31.5t0.5 -48.5v-256h-95v239q0 22 -0.5 36t-1.5 23.5t-3 15.5t-5 12q-16 30 -54 30q-62 0 -139 -58v-298h-95v422h94z" />
<glyph unicode="&#xf2;" horiz-adv-x="555" d="M328 473l-38 -7l-162 136v18l75 24l6 -2zM273 373q-58 0 -93.5 -39t-35.5 -103q0 -39 11 -72t29.5 -58t44 -39t55.5 -14q28 0 51.5 11t40 31t26 47.5t9.5 60.5q0 39 -10 71t-28.5 55t-44 36t-55.5 13zM291 433q49 0 90 -15.5t70 -44t45.5 -67.5t16.5 -87 q0 -51 -18.5 -93.5t-51 -73t-77.5 -48t-98 -17.5q-50 0 -91.5 16t-71.5 45t-46.5 69t-16.5 88q0 51 18 93t51 72t78.5 46.5t101.5 16.5z" />
<glyph unicode="&#xf3;" horiz-adv-x="555" d="M352 644l75 -24v-18l-162 -136l-38 7l119 169zM273 373q-58 0 -93.5 -39t-35.5 -103q0 -39 11 -72t29.5 -58t44 -39t55.5 -14q28 0 51.5 11t40 31t26 47.5t9.5 60.5q0 39 -10 71t-28.5 55t-44 36t-55.5 13zM291 433q49 0 90 -15.5t70 -44t45.5 -67.5t16.5 -87 q0 -51 -18.5 -93.5t-51 -73t-77.5 -48t-98 -17.5q-50 0 -91.5 16t-71.5 45t-46.5 69t-16.5 88q0 51 18 93t51 72t78.5 46.5t101.5 16.5z" />
<glyph unicode="&#xf4;" horiz-adv-x="555" d="M301 642l114 -161l-31 -17l-107 95l-108 -95l-30 17l114 161h48zM273 373q-58 0 -93.5 -39t-35.5 -103q0 -39 11 -72t29.5 -58t44 -39t55.5 -14q28 0 51.5 11t40 31t26 47.5t9.5 60.5q0 39 -10 71t-28.5 55t-44 36t-55.5 13zM291 433q49 0 90 -15.5t70 -44t45.5 -67.5 t16.5 -87q0 -51 -18.5 -93.5t-51 -73t-77.5 -48t-98 -17.5q-50 0 -91.5 16t-71.5 45t-46.5 69t-16.5 88q0 51 18 93t51 72t78.5 46.5t101.5 16.5z" />
<glyph unicode="&#xf5;" horiz-adv-x="555" d="M418 626l25 -21q-19 -51 -46.5 -78t-59.5 -27q-17 0 -31.5 6.5t-40.5 23.5q-21 14 -31 18.5t-21 4.5q-17 0 -30.5 -13.5t-28.5 -42.5h-5l-26 20q24 56 49 81.5t57 25.5q7 0 12.5 -1t12.5 -4t17.5 -9.5t28.5 -17.5q37 -22 51 -22q36 0 62 56h5zM273 373q-58 0 -93.5 -39 t-35.5 -103q0 -39 11 -72t29.5 -58t44 -39t55.5 -14q28 0 51.5 11t40 31t26 47.5t9.5 60.5q0 39 -10 71t-28.5 55t-44 36t-55.5 13zM291 433q49 0 90 -15.5t70 -44t45.5 -67.5t16.5 -87q0 -51 -18.5 -93.5t-51 -73t-77.5 -48t-98 -17.5q-50 0 -91.5 16t-71.5 45t-46.5 69 t-16.5 88q0 51 18 93t51 72t78.5 46.5t101.5 16.5z" />
<glyph unicode="&#xf6;" horiz-adv-x="555" d="M373 597q20 0 33.5 -14t13.5 -34t-13.5 -33.5t-33.5 -13.5t-34 13.5t-14 33.5t14 34t34 14zM180 597q20 0 33.5 -14t13.5 -34t-14 -33.5t-34 -13.5q-19 0 -33 13.5t-14 33.5t14 34t34 14zM273 373q-58 0 -93.5 -39t-35.5 -103q0 -39 11 -72t29.5 -58t44 -39t55.5 -14 q28 0 51.5 11t40 31t26 47.5t9.5 60.5q0 39 -10 71t-28.5 55t-44 36t-55.5 13zM291 433q49 0 90 -15.5t70 -44t45.5 -67.5t16.5 -87q0 -51 -18.5 -93.5t-51 -73t-77.5 -48t-98 -17.5q-50 0 -91.5 16t-71.5 45t-46.5 69t-16.5 88q0 51 18 93t51 72t78.5 46.5t101.5 16.5z" />
<glyph unicode="&#xf7;" horiz-adv-x="545" d="M468 349q11 0 13.5 -2.5t2.5 -13.5v-32q0 -11 -2.5 -13.5t-15.5 -2.5h-390q-11 0 -13.5 2.5t-2.5 13.5v32q0 11 2.5 13.5t13.5 2.5h392zM272 225q23 0 39.5 -17t16.5 -41q0 -23 -17 -39.5t-40 -16.5t-40 16.5t-17 39.5q0 25 16.5 41.5t41.5 16.5zM272 526q23 0 39.5 -17 t16.5 -40t-17 -40t-40 -17t-40 16.5t-17 39.5q0 25 16.5 41.5t41.5 16.5z" />
<glyph unicode="&#xf8;" horiz-adv-x="555" d="M210 72q18 -14 35.5 -20t38.5 -6q28 0 52 11t41 31.5t26.5 48.5t9.5 61q0 66 -36 119zM350 348q-32 27 -77 27q-59 0 -95 -39t-36 -104q0 -36 10 -67t31 -63zM435 458h50l-51 -70q38 -29 58.5 -73t20.5 -97q0 -50 -18.5 -92.5t-51 -73.5t-77.5 -48t-98 -17q-31 0 -56 5.5 t-53 17.5l-41 -56h-48l55 77q-83 63 -83 176q0 50 18 91.5t50.5 71.5t78 46.5t99.5 16.5q32 0 59 -5.5t53 -18.5z" />
<glyph unicode="&#xf9;" horiz-adv-x="537" d="M318 473l-38 -7l-162 136v18l75 24l6 -2zM464 0h-93v56q-45 -35 -85 -51t-82 -16q-43 0 -74 18t-46 53q-4 10 -7 21t-4.5 26.5t-2 38t-0.5 55.5v221h95v-220q0 -28 0.5 -45.5t1.5 -29t3.5 -18.5t5.5 -14q8 -14 23.5 -22t35.5 -8q28 0 63 14.5t71 40.5v302h95v-422z" />
<glyph unicode="&#xfa;" horiz-adv-x="537" d="M342 644l75 -24v-18l-162 -136l-38 7l119 169zM464 0h-93v56q-45 -35 -85 -51t-82 -16q-43 0 -74 18t-46 53q-4 10 -7 21t-4.5 26.5t-2 38t-0.5 55.5v221h95v-220q0 -28 0.5 -45.5t1.5 -29t3.5 -18.5t5.5 -14q8 -14 23.5 -22t35.5 -8q28 0 63 14.5t71 40.5v302h95v-422z " />
<glyph unicode="&#xfb;" horiz-adv-x="537" d="M292 642l114 -161l-31 -17l-107 95l-108 -95l-30 17l114 161h48zM464 0h-93v56q-45 -35 -85 -51t-82 -16q-43 0 -74 18t-46 53q-4 10 -7 21t-4.5 26.5t-2 38t-0.5 55.5v221h95v-220q0 -28 0.5 -45.5t1.5 -29t3.5 -18.5t5.5 -14q8 -14 23.5 -22t35.5 -8q28 0 63 14.5 t71 40.5v302h95v-422z" />
<glyph unicode="&#xfc;" horiz-adv-x="537" d="M364 597q20 0 33.5 -14t13.5 -34t-13.5 -33.5t-33.5 -13.5t-34 13.5t-14 33.5t14 34t34 14zM171 597q20 0 33.5 -14t13.5 -34t-14 -33.5t-34 -13.5q-19 0 -33 13.5t-14 33.5t14 34t34 14zM464 0h-93v56q-45 -35 -85 -51t-82 -16q-43 0 -74 18t-46 53q-4 10 -7 21 t-4.5 26.5t-2 38t-0.5 55.5v221h95v-220q0 -28 0.5 -45.5t1.5 -29t3.5 -18.5t5.5 -14q8 -14 23.5 -22t35.5 -8q28 0 63 14.5t71 40.5v302h95v-422z" />
<glyph unicode="&#xfd;" horiz-adv-x="422" d="M292 644l75 -24v-18l-162 -136l-38 7l119 169zM115 422l102 -322l139 322h89l-344 -686l-84 24l144 236l-155 426h109z" />
<glyph unicode="&#xfe;" horiz-adv-x="555" d="M167 88q29 -14 52.5 -19.5t51.5 -5.5q69 0 106.5 39.5t37.5 111.5q0 67 -35.5 107.5t-95.5 40.5q-29 0 -57.5 -8t-59.5 -25v-241zM168 -251q0 -5 -1.5 -6.5t-7.5 -1.5h-78q-8 0 -8 8v934q0 8 8 8h77q7 0 8 -1t1 -7v-297q27 14 48.5 23t40 14.5t36 7.5t38.5 2q41 0 75 -14 t58 -39.5t37 -61.5t13 -80q0 -52 -20 -96.5t-55 -77.5t-82 -52t-102 -19q-20 0 -39 2.5t-47 9.5v-256z" />
<glyph unicode="&#xff;" horiz-adv-x="422" d="M324 597q20 0 33.5 -14t13.5 -34t-13.5 -33.5t-33.5 -13.5t-34 13.5t-14 33.5t14 34t34 14zM131 597q20 0 33.5 -14t13.5 -34t-14 -33.5t-34 -13.5q-19 0 -33 13.5t-14 33.5t14 34t34 14zM115 422l102 -322l139 322h89l-344 -686l-84 24l144 236l-155 426h109z" />
<glyph unicode="&#x152;" horiz-adv-x="989" d="M536 547q-35 20 -69 29.5t-72 9.5q-52 0 -95.5 -18.5t-75 -52t-49 -79.5t-17.5 -101q0 -61 18.5 -112.5t50.5 -89t76.5 -58.5t96.5 -21q37 0 69 9.5t67 30.5v453zM958 634v-64h-325v-202h288v-65h-288v-235h331v-68h-425v22q-41 -17 -81 -25t-84 -8q-71 0 -131.5 24.5 t-104 69t-68 105t-24.5 132.5t26 132.5t72.5 104t110.5 68t141 24.5q39 0 72 -6.5t71 -20.5v12h419z" />
<glyph unicode="&#x153;" horiz-adv-x="811" d="M276 373q-60 0 -96 -39t-36 -103q0 -38 11 -71.5t30 -58t44.5 -38.5t55.5 -14q58 0 93.5 43t35.5 113q0 37 -10 68t-28 53.5t-43.5 34.5t-56.5 12zM675 273q-2 50 -23 77.5t-56 27.5q-41 0 -65 -34t-27 -94zM505 197q4 -69 36.5 -105t91.5 -36q32 0 59 8.5t62 30.5h9 l13 -37v-3q0 -4 -3 -7t-12 -10q-79 -50 -156 -50q-54 0 -91 20t-64 63q-23 -23 -44.5 -39t-44 -25.5t-47 -14t-53.5 -4.5q-48 0 -88 16t-69 44.5t-45.5 68.5t-16.5 87q0 50 18 92t50.5 72.5t77.5 47.5t99 17q57 0 97 -17.5t75 -57.5q60 75 150 75q51 0 89.5 -22.5 t58.5 -64.5q11 -23 16 -50t5 -67z" />
<glyph unicode="&#x178;" horiz-adv-x="500" d="M368 803q20 0 35 -15t15 -36t-15 -35.5t-36 -14.5q-20 0 -35 15t-15 35q0 22 15 36.5t36 14.5zM156 803q20 0 35 -15t15 -36q0 -20 -15 -35t-36 -15q-20 0 -35 14.5t-15 35.5q0 22 14.5 36.5t36.5 14.5zM92 634l171 -290l175 290h107l-249 -355v-279h-103v275l-222 359 h121z" />
<glyph unicode="&#x2c6;" horiz-adv-x="500" d="M274 642l114 -161l-31 -17l-107 95l-108 -95l-30 17l114 161h48z" />
<glyph unicode="&#x2dc;" horiz-adv-x="500" d="M385 622l25 -21q-19 -51 -46.5 -78t-59.5 -27q-17 0 -31.5 6.5t-40.5 23.5q-21 14 -31 18.5t-21 4.5q-17 0 -30.5 -13.5t-28.5 -42.5h-5l-26 20q24 56 49 81.5t57 25.5q7 0 12.5 -1t12.5 -4t17.5 -9.5t28.5 -17.5q37 -22 51 -22q36 0 62 56h5z" />
<glyph unicode="&#x2000;" horiz-adv-x="442" />
<glyph unicode="&#x2001;" horiz-adv-x="884" />
<glyph unicode="&#x2002;" horiz-adv-x="442" />
<glyph unicode="&#x2003;" horiz-adv-x="884" />
<glyph unicode="&#x2004;" horiz-adv-x="294" />
<glyph unicode="&#x2005;" horiz-adv-x="221" />
<glyph unicode="&#x2006;" horiz-adv-x="147" />
<glyph unicode="&#x2007;" horiz-adv-x="147" />
<glyph unicode="&#x2008;" horiz-adv-x="110" />
<glyph unicode="&#x2009;" horiz-adv-x="176" />
<glyph unicode="&#x200a;" horiz-adv-x="49" />
<glyph unicode="&#x2010;" horiz-adv-x="322" d="M283 278l-16 -79h-228l17 79h227z" />
<glyph unicode="&#x2011;" horiz-adv-x="322" d="M283 278l-16 -79h-228l17 79h227z" />
<glyph unicode="&#x2012;" horiz-adv-x="322" d="M283 278l-16 -79h-228l17 79h227z" />
<glyph unicode="&#x2013;" horiz-adv-x="467" d="M430 264v-57h-393v57h393z" />
<glyph unicode="&#x2014;" horiz-adv-x="737" d="M702 264v-57h-666v57h666z" />
<glyph unicode="&#x2018;" horiz-adv-x="267" d="M214 631q-89 -66 -89 -119q0 -20 23 -29q23 -8 32 -18.5t9 -27.5q0 -22 -16 -36.5t-40 -14.5q-35 0 -57.5 26.5t-22.5 68.5q0 38 19.5 76.5t57.5 72.5q6 6 14.5 12.5t17 12t14.5 9.5t8 4t5 -3l25 -29v-5z" />
<glyph unicode="&#x2019;" horiz-adv-x="267" d="M53 417q89 64 89 119q0 20 -23 29q-23 8 -32 18.5t-9 27.5q0 23 16 37t40 14q35 0 57.5 -26.5t22.5 -68.5q0 -38 -19.5 -76.5t-57.5 -72.5q-7 -6 -15.5 -12.5t-16.5 -12.5t-14 -9.5t-8 -3.5t-5 3l-25 28v6z" />
<glyph unicode="&#x201a;" horiz-adv-x="267" d="M53 -135q89 65 89 119q0 20 -23 29q-23 8 -32 18.5t-9 27.5q0 22 16 36.5t40 14.5q35 0 57.5 -26.5t22.5 -68.5q0 -78 -77 -149q-7 -6 -15.5 -12.5t-16.5 -12.5t-14 -9.5t-8 -3.5t-5 3l-25 28v6z" />
<glyph unicode="&#x201c;" horiz-adv-x="467" d="M214 631q-89 -66 -89 -119q0 -19 25 -29q22 -8 30.5 -18.5t8.5 -28.5q0 -21 -16 -35.5t-40 -14.5q-35 0 -57.5 26.5t-22.5 68.5q0 38 19.5 76.5t57.5 72.5q6 6 14.5 12.5t17 12t14.5 9.5t8 4t5 -3l25 -29v-5zM414 631q-89 -66 -89 -120q0 -19 23 -28q23 -8 32 -18.5 t9 -27.5q0 -22 -16 -36.5t-40 -14.5q-35 0 -57.5 26.5t-22.5 68.5q0 38 19.5 76.5t57.5 72.5q6 6 14.5 12.5t17 12t14.5 9.5t8 4t5 -3l25 -29v-5z" />
<glyph unicode="&#x201d;" horiz-adv-x="467" d="M253 417q89 64 89 119q0 19 -23 29q-23 9 -32 19t-9 28q0 21 16 35.5t40 14.5q35 0 57.5 -26.5t22.5 -68.5q0 -38 -19.5 -76.5t-57.5 -72.5q-7 -6 -15.5 -12.5t-16.5 -12.5t-14 -9.5t-8 -3.5t-5 3l-25 28v6zM53 417q89 64 89 119q0 20 -23 29q-23 8 -32 18.5t-9 28.5 q0 22 16 36t40 14q35 0 57.5 -26.5t22.5 -68.5q0 -38 -19.5 -76.5t-57.5 -72.5q-7 -6 -15.5 -12.5t-16.5 -12.5t-14 -9.5t-8 -3.5t-5 3l-25 28v6z" />
<glyph unicode="&#x201e;" horiz-adv-x="467" d="M253 -135q89 66 89 119q0 19 -25 29q-22 8 -30.5 18.5t-8.5 27.5q0 22 16 36.5t40 14.5q35 0 57.5 -26.5t22.5 -68.5q0 -78 -77 -149q-6 -6 -14.5 -12.5t-17 -12.5t-14.5 -9.5t-8 -3.5t-5 3l-25 28v6zM53 -135q89 65 89 119q0 20 -23 29q-23 8 -32 18.5t-9 27.5 q0 22 16 36.5t40 14.5q35 0 57.5 -26.5t22.5 -68.5q0 -78 -77 -149q-7 -6 -15.5 -12.5t-16.5 -12.5t-14 -9.5t-8 -3.5t-5 3l-25 28v6z" />
<glyph unicode="&#x2022;" horiz-adv-x="634" d="M320 455q27 0 50.5 -10.5t41 -28.5t28 -42t10.5 -51t-10.5 -51t-28.5 -42t-42 -28.5t-51 -10.5t-51 10.5t-42 28.5t-28.5 42t-10.5 51q0 28 10.5 52t28.5 42t42.5 28t52.5 10z" />
<glyph unicode="&#x2026;" horiz-adv-x="833" d="M695 114q26 0 44 -19t18 -45t-18.5 -44t-44.5 -18t-44.5 18t-18.5 44q0 27 18.5 45.5t45.5 18.5zM417 114q26 0 44 -18.5t18 -44.5t-18.5 -44.5t-44.5 -18.5t-44.5 18t-18.5 44q0 27 18.5 45.5t45.5 18.5zM139 114q26 0 44 -19t18 -45t-18.5 -44t-44.5 -18t-44.5 18 t-18.5 44q0 27 18.5 45.5t45.5 18.5z" />
<glyph unicode="&#x202f;" horiz-adv-x="176" />
<glyph unicode="&#x2039;" horiz-adv-x="304" d="M224 56l-180 181l180 183l35 -21l-109 -162l109 -161z" />
<glyph unicode="&#x203a;" horiz-adv-x="304" d="M79 420l180 -181l-180 -183l-35 21l109 162l-109 161z" />
<glyph unicode="&#x205f;" horiz-adv-x="221" />
<glyph unicode="&#x20ac;" horiz-adv-x="545" d="M461 372h-279q-1 -9 -1 -18v-20v-19h259l-19 -41h-236q14 -104 67 -163t133 -59q63 0 132 40q12 8 18 8q4 0 8 -4q5 -7 5 -10t-1 -6.5t-6 -11.5l-23 -49q-3 -7 -4.5 -9t-6.5 -3q-17 -9 -49 -13.5t-69 -4.5q-63 0 -109 15t-85 49q-91 76 -110 221h-70l19 41h49v8 q0 12 0.5 24.5t1.5 24.5h-70l19 41h58q5 20 8 31.5t10 28.5q37 92 105 139.5t162 47.5q45 0 81 -9.5t68 -31.5q11 -6 13 -11t2 -19v-47q0 -10 -1 -13t-6 -8l-11 -11q-1 -1 -4 -1t-5 3q-14 22 -22.5 33t-19.5 21q-38 35 -103 35q-72 0 -117.5 -45.5t-62.5 -136.5l-2 -6h293z " />
<glyph unicode="&#x2122;" horiz-adv-x="741" d="M393 634l103 -219l113 219h75l10 -317h-67l-5 250l-126 -245l-20 -3l-120 250l-4 -252h-54l19 317h76zM285 634v-46h-122v-271h-69v271h-121v46h312z" />
<glyph unicode="&#x25fc;" horiz-adv-x="420" d="M0 420h420v-420h-420v420z" />
<glyph unicode="&#xfb01;" horiz-adv-x="537" d="M464 422v-422h-94v422h94zM322 422v-61h-140v-361h-94v361h-66v43l66 17v22q0 60 15.5 104t49.5 79q32 32 75 49t92 17q25 0 49.5 -6t43.5 -15.5t31 -21.5t12 -24t-6 -16l-44 -35h-18q-29 47 -100 47q-27 0 -49 -9.5t-35 -26.5q-13 -16 -17.5 -43t-4.5 -81v-39h140z" />
<glyph unicode="&#xfb02;" horiz-adv-x="537" d="M464 691v-691h-94v594q-39 27 -89 27q-27 0 -48 -9t-32 -26q-11 -16 -15 -43t-4 -81v-40h140v-61h-140v-361h-94v361h-66v43l66 17v22q0 66 13.5 107t46.5 75q31 31 71 49t79 18q38 0 75 -17v16h91z" />
</font>
</defs>
</svg>
